 <svg  version="1.0" xmlns="http://www.w3.org/2000/svg"  width="1350.000000pt" height="771.000000pt" viewBox="0 0 1350.000000 771.000000"  preserveAspectRatio="xMidYMid meet">  <g transform="translate(0.000000,771.000000) scale(0.100000,-0.100000)" fill="#3d64d6" stroke="none"> <path d="M0 5724 l0 -1985 26 -77 c35 -103 37 -211 6 -302 -16 -45 -24 -99 -28 -179 -5 -103 -4 -113 11 -107 18 7 54 -29 54 -54 0 -8 -14 -22 -32 -31 l-32 -16 -3 -1486 -2 -1487 2674 0 2674 0 6 23 c3 12 6 50 6 84 0 63 13 90 25 53 4 -12 4 -39 0 -60 -4 -22 -4 -53 0 -70 l7 -30 4054 0 4054 0 0 1634 0 1635 -22 3 c-18 2 -24 11 -26 38 -2 19 -8 39 -13 44 -5 6 -9 44 -9 85 0 55 -4 79 -17 93 -15 17 -15 18 5 18 24 0 31 -24 35 -130 2 -59 4 -65 25 -68 l22 -3 0 2180 0 2181 -5155 0 -5155 0 0 -172 c0 -95 5 -249 10 -343 13 -244 14 -307 6 -336 -7 -24 -4 -26 44 -37 28 -7 65 -12 81 -12 95 0 241 -126 302 -260 48 -105 52 -129 51 -315 0 -146 -4 -187 -17 -218 -18 -39 -88 -97 -117 -97 -10 0 -35 -7 -56 -16 -91 -39 -549 -14 -659 36 -22 10 -59 25 -81 35 -66 28 -71 46 -67 233 1 90 7 171 13 182 5 10 10 33 10 50 0 28 11 57 41 110 5 8 12 22 16 30 9 22 104 140 111 140 4 0 18 10 32 23 30 28 96 59 171 81 l55 16 12 87 c16 122 23 279 26 551 l2 232 -1588 0 -1588 0 0 -1986z m10729 1426 c1 -151 1 -284 -1 -295 -4 -24 46 -44 115 -44 77 -1 216 -77 247 -136 7 -14 17 -25 21 -25 12 0 77 -142 90 -196 6 -27 18 -69 25 -93 9 -29 14 -94 14 -185 -1 -151 -8 -174 -57 -190 -12 -4 -27 -13 -33 -21 -7 -8 -25 -15 -40 -15 -14 0 -30 -3 -34 -7 -16 -16 -180 -43 -301 -49 -171 -8 -353 14 -447 55 -76 32 -82 52 -82 276 -1 208 3 228 66 353 52 102 179 213 260 229 82 15 109 71 107 225 0 47 4 95 10 107 7 12 11 85 11 184 0 90 3 193 7 228 l8 64 6 -95 c4 -52 8 -219 8 -370z m-4000 241 c17 -11 6 -13 -179 -41 -133 -21 -160 -28 -270 -70 -30 -12 -70 -26 -88 -31 -26 -8 -32 -14 -27 -29 4 -13 -2 -21 -22 -29 -54 -22 -88 -45 -108 -70 -27 -35 -77 -81 -89 -81 -5 0 -29 -16 -53 -36 -33 -27 -43 -42 -40 -56 4 -14 2 -18 -9 -14 -22 8 -30 -25 -10 -39 12 -9 15 -20 10 -39 -3 -14 -10 -26 -15 -26 -5 0 -9 -7 -9 -15 0 -18 12 -19 28 -3 16 16 15 8 -3 -36 -8 -20 -20 -36 -26 -36 -18 0 -2 -182 17 -196 9 -7 19 -45 25 -95 6 -46 17 -112 25 -146 23 -102 15 -187 -15 -168 -20 12 -42 -16 -40 -49 2 -17 -1 -48 -5 -69 -8 -38 -6 -48 40 -137 13 -26 71 -67 81 -57 3 4 7 102 10 219 2 117 11 251 18 298 8 47 17 114 21 150 9 95 39 190 73 231 20 24 47 41 84 54 48 16 66 17 143 8 55 -6 98 -6 114 -1 14 6 66 14 115 18 50 5 119 16 155 25 100 25 157 29 218 15 74 -17 115 -42 141 -86 34 -57 81 -202 81 -249 0 -24 7 -77 16 -117 18 -85 27 -491 13 -573 -5 -27 -13 -79 -18 -115 -16 -124 -64 -222 -155 -318 -141 -149 -178 -182 -242 -218 -67 -38 -72 -39 -164 -39 -84 0 -102 3 -153 28 -32 16 -103 69 -163 124 -58 52 -108 93 -110 90 -10 -10 9 -78 30 -107 122 -167 252 -311 313 -347 38 -22 52 -25 98 -20 107 11 181 61 262 175 108 154 152 223 164 259 10 32 13 35 20 18 4 -11 8 -55 8 -97 1 -66 4 -77 20 -83 18 -5 51 -60 51 -85 0 -7 8 -24 18 -38 10 -15 24 -46 30 -69 16 -53 25 -59 74 -42 38 12 41 12 58 -12 24 -30 37 -18 42 36 l3 40 -46 -3 c-39 -3 -50 0 -62 18 -11 16 -21 19 -41 14 -24 -6 -26 -4 -26 24 0 17 5 34 11 38 7 4 9 22 5 49 -6 34 -4 44 9 49 22 8 35 -1 35 -23 0 -9 13 -27 29 -39 16 -12 32 -35 36 -52 4 -16 15 -35 25 -40 25 -13 40 13 40 70 0 25 4 39 10 35 6 -3 10 -34 10 -68 0 -65 23 -194 37 -207 4 -5 37 -10 73 -12 63 -3 65 -2 68 22 9 82 24 86 45 13 8 -26 19 -49 25 -51 26 -8 34 46 40 251 5 199 6 212 27 233 11 11 27 23 33 25 8 3 12 38 13 112 1 97 8 132 23 109 3 -4 6 -48 7 -98 2 -112 5 -123 35 -134 33 -13 30 -30 -5 -30 -16 0 -41 -4 -56 -10 l-26 -10 5 -177 c4 -181 8 -228 19 -239 3 -3 29 -9 58 -13 29 -3 54 -11 56 -17 5 -16 -43 -34 -92 -34 -59 0 -75 -8 -75 -36 0 -22 4 -24 53 -25 86 -1 142 -12 142 -29 0 -8 -11 -17 -25 -21 -20 -6 -21 -7 -5 -8 21 -2 55 -23 55 -35 0 -3 -10 -6 -22 -6 -37 0 -54 -15 -39 -33 10 -13 8 -18 -11 -31 -22 -16 -21 -16 29 -16 60 0 73 -12 81 -75 4 -43 8 -47 66 -82 33 -21 76 -47 95 -60 18 -12 37 -20 42 -17 5 3 9 31 9 62 0 75 9 87 58 83 39 -2 39 -2 46 40 4 24 12 49 18 56 22 27 170 6 187 -26 5 -9 9 -27 9 -41 0 -14 3 -53 7 -88 7 -53 5 -65 -10 -82 -27 -30 -35 -25 -35 23 0 24 -6 51 -13 60 -10 15 -16 16 -39 5 -26 -13 -33 -28 -44 -108 -3 -19 -8 -46 -11 -60 -5 -22 -7 -20 -17 20 l-12 45 -50 -4 c-64 -4 -71 -10 -39 -31 42 -27 122 -129 129 -163 3 -17 22 -45 41 -63 22 -20 35 -41 35 -57 0 -41 10 -55 46 -67 31 -11 34 -15 34 -50 0 -29 -5 -42 -20 -50 -23 -12 -27 -61 -9 -107 6 -15 20 -64 30 -108 11 -44 26 -105 34 -135 7 -30 21 -84 30 -120 9 -36 22 -85 29 -110 8 -25 21 -76 30 -115 10 -38 24 -93 32 -121 8 -28 14 -60 14 -72 0 -38 21 -47 111 -47 l84 0 5 435 c3 239 7 436 8 438 1 1 8 2 16 2 9 0 16 -18 20 -52 6 -44 8 -840 3 -918 -2 -22 3 -26 43 -31 32 -4 18 -6 -52 -7 -98 -2 -118 5 -75 26 18 10 12 11 -33 6 -30 -3 -59 -10 -64 -14 -11 -11 12 -107 31 -125 12 -13 113 -14 749 -10 l734 5 0 -33 c0 -40 9 -54 38 -58 32 -5 23 -24 -13 -26 -16 -2 -68 -8 -114 -14 -57 -8 -96 -8 -120 -1 -20 5 -56 8 -81 5 -25 -2 -97 -5 -160 -7 -63 -1 -125 -8 -137 -14 -18 -10 -113 -23 -173 -25 -78 -1 -304 14 -313 21 -21 17 -150 23 -170 8 -9 -7 -29 -11 -43 -8 -20 3 -26 0 -31 -17 -3 -11 -11 -21 -18 -21 -7 0 -24 -10 -39 -21 -26 -21 -27 -24 -20 -88 3 -36 24 -118 45 -181 21 -63 39 -129 39 -146 0 -31 19 -88 42 -128 17 -31 21 -134 8 -216 -6 -41 -15 -118 -20 -170 -4 -52 -11 -105 -15 -118 -7 -21 -5 -23 21 -16 16 4 38 10 49 14 11 4 80 5 153 2 l134 -5 -3 -166 c-3 -186 -1 -196 71 -286 22 -27 40 -60 40 -73 0 -12 7 -34 16 -48 9 -13 14 -28 10 -31 -6 -6 -94 -14 -147 -13 -15 0 -37 -4 -50 -9 -20 -8 -13 -10 33 -10 73 -1 210 -20 222 -31 16 -16 -32 -29 -125 -35 -181 -10 -409 -13 -414 -4 -14 22 -77 26 -211 14 -76 -7 -142 -11 -146 -8 -4 2 -16 -5 -28 -17 -21 -21 -50 -27 -50 -10 0 5 14 32 31 60 21 34 37 50 51 50 75 0 179 79 218 164 11 25 25 46 30 46 5 0 12 10 16 23 4 12 18 39 30 59 26 41 31 72 12 66 -15 -5 -78 -97 -78 -114 0 -7 -18 -39 -40 -72 -22 -33 -40 -65 -40 -71 0 -6 -4 -11 -10 -11 -5 0 -10 21 -10 46 0 127 -149 322 -295 384 -133 57 -283 67 -374 25 -122 -57 -168 -131 -129 -207 21 -40 38 -42 38 -5 0 12 15 45 33 72 47 73 115 105 224 105 142 0 255 -61 329 -176 40 -62 42 -79 13 -108 -11 -12 -33 -41 -49 -66 -34 -53 -62 -89 -109 -136 -18 -19 -45 -58 -58 -85 -14 -28 -34 -56 -44 -62 -11 -7 -19 -16 -19 -20 0 -13 -56 -84 -103 -132 -21 -22 -45 -55 -53 -74 -8 -19 -30 -58 -48 -85 -18 -28 -47 -77 -64 -109 -42 -79 -90 -137 -113 -137 -12 0 -19 -7 -19 -19 0 -56 -27 -65 -83 -27 -24 17 -38 21 -45 14 -19 -19 -116 61 -147 122 -19 37 -8 71 60 175 45 70 110 195 151 291 13 32 7 187 -16 404 -5 52 -12 143 -14 201 -6 137 0 149 86 149 58 0 60 1 54 23 -4 16 1 28 14 40 14 11 20 29 20 56 0 22 13 68 30 106 17 37 30 76 30 87 0 11 7 32 16 47 16 26 15 30 -22 100 -39 75 -48 137 -24 166 9 10 8 22 -4 47 -30 67 -54 124 -71 173 -10 28 -22 54 -27 60 -15 17 -9 285 9 385 9 52 16 128 15 169 -1 49 6 98 19 145 28 96 34 136 20 136 -6 0 -14 -13 -17 -30 -4 -16 -13 -30 -20 -30 -15 0 -17 9 -34 125 -6 44 -16 109 -21 143 -5 35 -14 119 -19 187 -4 67 -13 156 -19 196 -10 72 -23 209 -42 454 -10 120 -38 257 -52 255 -5 -1 -24 13 -44 31 -20 17 -50 38 -67 46 -35 16 -55 27 -219 126 -65 40 -127 77 -137 83 -11 6 -28 18 -38 27 -26 24 -39 21 -56 -11 -13 -26 -20 -69 -45 -282 -5 -41 -14 -88 -20 -103 -6 -16 -11 -41 -11 -56 0 -16 -6 -46 -13 -67 -20 -59 -14 -69 41 -70 67 -1 133 -36 192 -102 39 -43 50 -64 50 -89 0 -41 -18 -43 -26 -3 -6 29 -97 130 -117 130 -6 0 -19 8 -30 18 -18 16 -66 17 -726 16 l-706 -2 -42 -22 c-52 -27 -114 -87 -135 -132 -46 -96 -47 -103 -48 -275 -2 -178 2 -203 29 -203 10 0 24 -14 32 -32 28 -62 37 -46 43 79 3 65 9 177 13 249 9 129 9 130 43 167 47 52 83 68 171 74 104 8 125 1 139 -42 6 -19 21 -41 33 -47 15 -9 138 -14 404 -20 436 -8 438 -8 469 62 22 49 37 54 144 46 152 -11 206 -81 183 -236 -8 -50 -11 -55 -38 -61 -29 -6 -29 -6 13 -14 34 -6 46 -14 54 -34 14 -39 2 -2715 -13 -2775 -8 -31 -23 -56 -48 -79 -64 -58 -92 -60 -769 -59 -331 0 -616 3 -632 7 -21 5 -32 14 -36 31 -12 48 -26 25 -18 -32 12 -97 -30 -155 -111 -154 -16 1 -46 -2 -65 -5 -32 -6 -39 -2 -97 54 -48 48 -63 70 -68 101 -7 44 -20 52 -28 18 -4 -13 -12 -32 -20 -42 -13 -18 -17 -17 -92 33 -42 29 -95 69 -117 89 -22 20 -47 41 -56 46 -31 17 -142 140 -168 186 -15 26 -26 59 -25 79 1 45 33 110 77 155 34 35 54 39 54 11 0 -8 12 -22 28 -32 15 -9 61 -42 102 -73 129 -97 224 -157 321 -204 52 -26 113 -64 137 -86 24 -22 47 -40 52 -40 6 0 10 -7 10 -15 0 -8 6 -15 14 -15 7 0 17 -10 21 -22 6 -20 8 -21 12 -5 3 13 -9 31 -38 58 -40 37 -44 45 -50 102 -6 65 4 100 36 127 33 27 57 92 62 168 5 66 3 80 -18 118 -13 24 -27 44 -31 44 -5 0 -8 7 -8 15 0 7 -6 18 -13 22 -27 16 -37 73 -30 175 l6 99 44 45 c23 25 43 50 43 57 0 7 6 22 14 32 13 18 15 18 48 -11 l35 -31 622 -1 623 -1 25 25 c24 24 25 29 19 111 -3 47 -8 88 -12 92 -3 3 -290 7 -637 8 -617 3 -633 2 -659 -17 -40 -29 -64 -26 -79 12 -11 30 -13 31 -16 11 -3 -13 5 -36 16 -52 12 -16 21 -36 21 -45 0 -9 -28 -46 -62 -82 -56 -58 -66 -65 -93 -60 -18 4 -42 0 -59 -9 -15 -8 -35 -15 -43 -15 -26 0 -137 116 -157 165 -17 44 -17 47 0 83 9 20 24 42 33 49 14 11 14 12 -1 13 -10 0 -18 -4 -18 -10 0 -5 -7 -10 -15 -10 -8 0 -15 -4 -15 -10 0 -5 -10 -18 -21 -29 -16 -15 -26 -18 -40 -11 -9 6 -30 7 -46 5 -25 -5 -32 0 -62 45 -18 27 -37 50 -41 50 -4 0 -13 14 -20 30 -7 17 -27 43 -44 58 -17 15 -44 47 -60 70 -16 23 -33 42 -37 42 -5 0 -9 5 -9 10 0 9 -35 65 -50 80 -3 3 -13 22 -24 42 -10 20 -34 53 -52 74 -19 20 -34 45 -34 55 0 23 -16 33 -24 14 -6 -18 2 -45 15 -45 5 0 9 -9 9 -19 0 -11 7 -26 15 -35 8 -8 15 -18 15 -21 0 -4 14 -27 30 -52 17 -24 30 -50 30 -57 0 -8 7 -19 15 -26 8 -7 15 -17 15 -22 0 -6 11 -23 25 -40 30 -36 31 -49 5 -73 -11 -10 -20 -23 -20 -29 0 -6 66 -81 146 -166 81 -85 154 -166 162 -179 9 -13 91 -89 182 -169 91 -79 179 -161 195 -181 17 -20 42 -48 58 -63 15 -15 27 -36 27 -47 0 -11 4 -22 9 -25 16 -10 20 -77 6 -116 -27 -77 -64 -100 -189 -117 -37 -5 -41 -3 -112 71 -69 71 -74 80 -74 119 0 24 5 48 12 55 6 6 8 15 4 19 -4 5 -22 -8 -39 -27 -49 -55 -76 -45 -201 75 -35 33 -93 82 -129 109 -37 26 -69 56 -72 66 -3 11 -26 31 -50 47 -25 15 -45 31 -45 35 0 4 -38 46 -85 93 -65 65 -85 92 -85 113 0 15 -4 33 -9 41 -9 14 -31 7 -31 -10 0 -6 -6 -16 -12 -23 -7 -8 -20 -24 -28 -36 -8 -12 -23 -33 -32 -45 -10 -13 -18 -28 -18 -33 0 -6 -6 -23 -14 -39 -44 -87 -47 -105 -43 -243 5 -148 12 -191 36 -230 28 -45 118 -184 145 -222 26 -38 94 -88 120 -88 19 0 33 -23 18 -28 -41 -13 27 -42 100 -42 41 0 53 -5 74 -28 15 -15 32 -39 40 -53 17 -33 121 -129 140 -129 8 0 14 -5 14 -11 0 -7 8 -18 18 -25 14 -11 15 -13 2 -14 -9 0 -20 4 -25 9 -11 11 -194 16 -463 12 -101 -2 -224 0 -275 4 -91 6 -126 -2 -113 -24 4 -6 24 -12 44 -12 69 -3 -52 -17 -188 -23 -69 -3 -147 -8 -173 -12 -43 -5 -49 -4 -54 15 -6 24 -21 28 -29 6 -8 -19 -63 -29 -95 -16 -19 7 -38 6 -68 -5 -57 -19 -231 -30 -258 -16 -18 10 -20 18 -16 54 6 45 19 69 67 130 27 35 29 41 23 104 -4 36 -11 72 -17 78 -5 7 -13 30 -18 51 -11 54 -32 58 -32 6 0 -45 -14 -61 -29 -32 -12 21 3 81 20 81 5 0 9 24 9 54 0 93 -21 116 -39 44 -10 -42 -10 -42 -5 12 3 30 7 74 8 98 1 23 8 48 14 54 8 8 72 11 201 10 l189 -1 11 45 c9 35 16 44 32 44 20 0 21 -4 17 -44 l-5 -44 91 -2 c252 -6 240 -6 244 14 2 10 -3 23 -12 28 -10 5 -16 22 -16 43 0 18 -6 40 -14 48 -21 20 -39 169 -30 241 4 34 7 102 6 151 -2 72 3 107 23 174 14 47 25 94 25 106 0 41 30 134 55 170 28 42 35 101 11 92 -8 -3 -19 0 -25 7 -6 8 -32 16 -57 19 -24 2 -53 12 -63 21 -11 10 -25 16 -33 14 -7 -2 -20 3 -28 10 -8 7 -24 19 -35 27 -19 14 -19 16 -2 26 10 6 17 22 17 39 l0 30 124 0 c68 0 145 3 171 7 43 6 49 9 66 47 10 23 19 56 19 73 l0 33 -187 2 c-181 3 -188 4 -191 24 -2 11 6 28 17 38 21 19 48 21 333 25 61 1 78 19 78 82 0 45 -2 49 -22 46 -19 -2 -24 4 -26 28 -5 58 -12 75 -31 75 -28 0 -38 -19 -46 -81 -12 -96 -32 -106 -42 -21 -6 51 -17 81 -28 71 -3 -4 -8 -29 -12 -58 -7 -61 -26 -69 -22 -8 5 82 1 97 -25 97 -21 0 -24 -6 -30 -52 -3 -29 -6 -72 -6 -95 0 -32 -4 -43 -15 -43 -12 0 -15 14 -16 63 -1 34 -1 65 -1 68 0 3 -3 23 -8 44 -11 49 -4 55 73 55 43 0 57 -4 57 -14 0 -27 23 -30 42 -5 16 19 29 23 74 23 63 0 74 -9 74 -69 0 -46 12 -37 28 21 7 23 19 45 27 48 11 4 15 22 15 71 0 37 -4 65 -10 65 -5 0 -10 -12 -11 -27 -1 -16 -4 -39 -9 -53 l-7 -25 -11 25 c-5 14 -17 32 -26 39 -9 7 -16 23 -16 35 0 26 -16 53 -26 43 -4 -3 -10 -38 -13 -76 -12 -132 -42 -102 -39 39 l3 95 57 3 c57 3 58 2 71 -30 l14 -33 14 28 c9 16 26 34 40 40 19 10 25 21 27 59 2 25 10 52 18 58 7 7 14 21 14 31 0 10 7 39 16 65 8 25 19 67 24 93 4 25 15 71 24 101 10 30 21 75 26 100 5 25 23 74 39 110 16 36 35 81 44 100 15 38 51 84 106 138 32 31 33 36 18 47 -23 17 -24 136 -2 155 9 8 15 30 15 59 0 53 15 86 26 58 3 -9 12 -17 20 -17 18 0 87 -32 96 -45 11 -14 -12 -35 -38 -35 -13 0 -24 -4 -24 -10 0 -5 18 -10 40 -10 29 0 43 -5 52 -20 16 -26 42 -25 66 1 11 11 35 28 53 38 44 24 49 41 10 41 -44 0 -55 27 -47 114 7 74 17 93 51 96 88 9 111 -21 95 -127 -5 -37 -10 -71 -10 -75 0 -19 43 -4 102 35 35 24 71 47 79 50 8 4 28 16 44 26 17 11 36 20 43 20 11 1 31 13 121 73 14 10 33 20 41 24 46 18 71 32 127 68 68 43 87 70 117 171 19 61 21 67 63 145 22 40 24 54 20 128 -3 45 -1 99 3 118 7 28 4 43 -11 68 -28 47 -49 96 -65 151 -29 97 -34 105 -61 99 -19 -5 -31 2 -61 33 -59 61 -114 151 -119 194 -6 40 -23 55 -23 20 0 -11 -4 -23 -10 -26 -6 -4 -10 31 -10 99 0 59 4 108 10 111 6 4 10 -9 10 -31 0 -47 14 -35 16 13 1 31 9 44 49 78 35 31 46 46 39 56 -5 8 -14 41 -21 74 -22 114 -30 145 -43 160 -9 10 -12 47 -12 111 1 71 -2 94 -11 91 -7 -2 -14 -17 -17 -32 -11 -60 -25 -17 -25 75 0 90 15 166 39 200 26 36 37 63 31 79 -16 50 191 216 335 269 55 20 240 80 295 96 56 16 282 21 304 7z m243 -82 c33 -17 68 -52 68 -66 0 -19 -7 -16 -38 12 -15 14 -32 25 -38 25 -6 0 -19 9 -29 20 -10 11 -24 20 -32 20 -8 0 -12 4 -8 10 6 9 35 2 77 -21z m136 -59 c12 -16 22 -34 22 -40 0 -6 7 -22 16 -35 15 -24 12 -45 -7 -45 -5 0 -9 9 -9 20 0 11 -7 23 -15 26 -8 4 -15 14 -15 24 0 28 -21 36 -37 15 -12 -17 -13 -17 -13 -2 0 9 5 17 10 17 6 0 10 11 10 25 0 33 11 32 38 -5z m-2051 -107 c29 -26 46 -95 32 -126 -21 -47 -77 -59 -137 -28 -67 35 -96 123 -50 155 32 23 130 21 155 -1z m4048 -5 c24 -18 27 -26 22 -61 -11 -82 -80 -117 -162 -83 -27 12 -35 22 -41 50 -3 20 -4 46 -1 58 14 56 129 78 182 36z m-1885 -108 c0 -25 -18 -36 -26 -16 -8 21 3 49 16 41 5 -3 10 -15 10 -25z m62 -144 c15 -17 28 -37 28 -43 0 -7 5 -13 10 -13 6 0 10 -12 10 -27 -1 -26 -1 -27 -12 -8 -6 11 -35 44 -64 73 -30 29 -54 57 -54 62 0 17 54 -12 82 -44z m1689 7 c5 -14 11 -70 13 -122 3 -90 6 -100 35 -142 31 -44 32 -46 24 -114 -5 -39 -5 -184 1 -323 5 -149 5 -257 0 -262 -5 -5 -47 -10 -93 -11 -62 -1 -85 2 -92 12 -5 8 -9 155 -9 328 l0 314 26 46 c15 25 35 56 46 67 16 18 18 28 10 60 -20 82 -10 174 19 174 5 0 14 -12 20 -27z m-3720 -98 c0 -44 1 -102 1 -130 0 -49 -33 -145 -51 -145 -5 0 -23 -13 -40 -29 l-31 -29 0 28 c0 15 8 38 18 51 56 74 61 92 61 223 -1 134 5 162 28 130 9 -12 14 -47 14 -99z m-298 82 c3 -8 3 -83 0 -168 -4 -140 -3 -152 11 -134 15 20 16 19 51 -19 19 -22 35 -43 35 -48 0 -15 -27 -8 -50 12 -13 11 -28 20 -34 20 -25 0 -86 -22 -86 -30 0 -6 -9 -10 -20 -10 -30 0 -24 25 16 69 l35 40 2 140 c2 123 4 141 18 141 9 0 19 -6 22 -13z m-559 -68 c8 -64 -1 -86 -28 -76 -12 5 -14 17 -10 59 7 64 11 78 22 78 5 0 13 -28 16 -61z m266 -30 c0 -43 -3 -50 -16 -45 -9 3 -18 6 -20 6 -2 0 -4 25 -4 55 0 53 1 55 20 45 16 -9 20 -21 20 -61z m870 10 c0 -22 -4 -59 -9 -82 -5 -23 -15 -76 -21 -117 -9 -56 -18 -82 -38 -102 -32 -34 -42 -35 -42 -3 0 16 12 34 35 52 l35 28 0 100 c0 103 14 180 31 170 5 -4 9 -24 9 -46z m4129 4 c12 -42 8 -53 -20 -53 -15 0 -19 7 -19 38 0 63 24 72 39 15z m-1364 -3 c4 -12 5 -63 3 -115 -3 -92 -2 -94 25 -115 47 -37 52 -56 52 -200 0 -74 2 -201 4 -283 2 -81 2 -149 0 -151 -10 -11 -190 -12 -198 -2 -8 11 1 191 17 348 6 64 12 81 30 94 12 8 22 25 22 38 0 12 6 31 14 41 12 16 16 17 30 6 30 -25 42 -6 14 22 -34 34 -62 34 -92 2 -13 -13 -26 -22 -29 -18 -16 15 -5 45 29 83 31 34 35 45 30 71 -5 28 6 137 20 182 7 23 21 22 29 -3z m1110 -122 c0 -64 3 -114 6 -112 3 2 16 -7 29 -21 l22 -24 -44 2 c-31 1 -52 -5 -75 -21 -17 -12 -34 -22 -37 -22 -15 0 -3 32 29 79 33 47 35 56 35 130 0 86 6 114 24 108 7 -3 11 -43 11 -119z m-235 41 c0 -22 5 -50 11 -61 12 -22 -2 -68 -20 -68 -14 0 -18 30 -13 103 5 72 22 93 22 26z m-425 -64 c-4 -54 -1 -66 20 -95 23 -31 24 -38 19 -144 -6 -141 -7 -114 9 -309 7 -94 18 -172 24 -175 6 -4 -23 -8 -65 -10 -43 -1 -86 -3 -97 -5 -22 -2 -21 -31 -16 400 l3 211 35 33 c35 32 36 33 30 95 -6 63 0 78 31 66 9 -3 11 -22 7 -67z m-4376 13 c-1 -87 -17 -105 -18 -20 -1 42 3 72 9 72 6 0 10 -24 9 -52z m309 -68 c7 -8 24 -31 38 -50 21 -29 22 -36 9 -38 -9 -2 -22 2 -30 8 -9 7 -23 9 -37 4 -13 -4 -34 -8 -48 -9 -14 -1 -35 -4 -47 -9 -35 -11 -29 18 8 44 26 19 32 20 42 7 7 -8 20 -17 29 -20 16 -6 17 2 13 91 -2 64 -1 78 3 42 4 -31 13 -62 20 -70z m3842 65 c0 -8 -4 -17 -10 -20 -6 -4 -10 5 -10 20 0 15 4 24 10 20 6 -3 10 -12 10 -20z m1112 -88 c-8 -60 -12 -71 -46 -102 -59 -54 -80 -23 -27 38 16 18 33 46 37 63 7 31 33 78 40 72 2 -3 0 -34 -4 -71z m-1936 8 c3 -8 -2 -22 -11 -31 -14 -14 -16 -31 -13 -88 4 -60 1 -79 -20 -125 -18 -38 -27 -49 -33 -40 -14 23 -10 61 8 82 13 13 19 40 21 95 3 75 16 122 34 122 5 0 11 -7 14 -15z m-2393 -21 c11 -14 16 -28 13 -31 -3 -3 -8 2 -12 11 -3 9 -12 16 -20 16 -8 0 -14 7 -14 15 0 22 12 18 33 -11z m2171 9 c-4 -10 -9 -65 -10 -123 -1 -75 -6 -113 -18 -135 -15 -28 -15 -31 1 -42 9 -7 27 -13 39 -13 32 0 37 -14 14 -35 -26 -24 -25 -35 6 -60 17 -14 27 -33 31 -62 9 -68 -1 -88 -49 -102 -40 -12 -41 -14 -23 -27 10 -8 27 -14 37 -14 32 0 19 -19 -19 -29 -62 -17 -82 -14 -89 14 -3 14 -4 109 -2 213 3 163 6 191 23 216 14 22 20 52 23 122 4 86 6 94 24 94 16 0 18 -4 12 -17z m1056 7 c0 -5 -11 -10 -24 -10 -14 0 -28 5 -31 10 -4 6 7 10 24 10 17 0 31 -4 31 -10z m-4190 -21 c0 -14 -43 -49 -53 -42 -4 2 3 15 15 29 25 26 38 30 38 13z m4851 -46 c35 -21 37 -33 6 -33 -12 0 -39 -9 -60 -20 -44 -24 -47 -24 -47 -6 0 13 55 76 67 76 3 0 18 -8 34 -17z m-1281 -37 c0 -27 -17 -43 -31 -29 -12 12 1 53 17 53 8 0 14 -10 14 -24z m-2655 -41 c11 -16 25 -36 32 -43 9 -9 13 -45 13 -108 0 -89 -1 -95 -26 -117 -14 -12 -35 -39 -46 -60 -22 -45 -41 -44 -48 2 -8 52 -24 31 -26 -34 -1 -69 10 -102 30 -86 16 13 71 4 87 -15 13 -16 13 -16 -76 -33 -35 -6 -63 -7 -68 -2 -11 11 -5 164 13 336 12 114 15 122 49 166 20 26 38 41 41 35 3 -6 14 -24 25 -41z m-868 2 c47 -67 64 -115 67 -196 4 -77 3 -80 -27 -111 l-30 -31 24 -17 c13 -9 31 -17 39 -17 11 0 15 -13 17 -52 2 -69 -14 -81 -103 -77 -36 2 -70 7 -76 10 -19 12 64 44 115 44 34 0 47 4 44 13 -2 7 -23 12 -53 12 -27 0 -55 4 -61 8 -18 11 -16 47 3 68 15 16 14 19 -10 40 -25 22 -26 27 -26 123 0 82 4 108 20 139 11 20 20 46 20 57 0 28 11 24 37 -13z m581 -4 c2 -9 -9 -13 -37 -13 -39 0 -50 8 -34 24 11 11 66 2 71 -11z m4476 -15 c21 -33 32 -201 14 -215 -7 -6 -40 -13 -73 -15 l-60 -3 -3 105 c-4 147 -3 150 58 150 40 0 52 -4 64 -22z m-210 -81 c12 -97 2 -117 -63 -117 -58 0 -58 1 -51 104 5 69 6 71 35 77 64 14 69 10 79 -64z m-4256 57 c21 -4 22 -8 22 -123 0 -132 1 -131 -70 -131 -29 0 -42 5 -50 19 -14 27 -13 214 1 228 12 12 52 14 97 7z m586 -10 c9 -23 7 -199 -1 -208 -5 -4 -8 -18 -8 -29 0 -19 -7 -22 -44 -25 -58 -4 -75 3 -62 25 7 13 5 23 -6 35 -13 14 -13 29 -3 110 7 51 14 96 17 101 2 4 26 7 53 7 34 0 50 -4 54 -16z m2336 -20 c0 -13 -4 -24 -10 -24 -5 0 -10 14 -10 31 0 17 4 28 10 24 6 -3 10 -17 10 -31z m664 20 c21 -8 22 -83 1 -110 -14 -18 -16 -18 -28 -2 -8 10 -31 18 -58 20 l-44 3 -3 42 -3 42 43 4 c24 2 51 4 60 5 9 1 23 -1 32 -4z m-1284 -33 c0 -17 -4 -33 -10 -36 -6 -4 -10 8 -10 29 0 20 5 36 10 36 6 0 10 -13 10 -29z m-2593 -11 c7 -14 13 -60 13 -102 0 -91 6 -114 26 -97 18 15 21 5 28 -103 6 -107 2 -110 -111 -105 l-78 4 -3 102 c-2 69 1 101 8 96 5 -3 10 -33 10 -66 0 -51 3 -59 19 -59 22 0 31 26 31 94 0 43 -4 52 -35 80 -33 31 -35 36 -35 99 0 76 11 88 75 84 31 -1 42 -7 52 -27z m3213 -47 c0 -9 -11 -28 -23 -42 -23 -25 -24 -29 -15 -136 4 -60 13 -121 19 -135 9 -20 7 -27 -8 -37 -9 -8 -24 -12 -33 -11 -13 3 -15 30 -18 167 -2 157 -2 165 19 188 26 27 59 31 59 6z m-252 -22 c9 -5 25 -12 36 -15 17 -6 17 -8 2 -31 -16 -24 -16 -26 7 -49 13 -13 29 -25 36 -27 10 -4 15 -33 18 -106 l3 -101 -27 -5 c-85 -16 -102 -17 -109 -6 -8 13 -6 328 2 341 7 10 10 10 32 -1z m-337 -43 c27 -30 37 -55 40 -109 3 -64 -12 -229 -21 -229 -5 0 -20 -20 -34 -44 -77 -132 -160 -151 -110 -26 12 30 21 39 34 35 20 -6 43 18 60 65 15 42 23 240 9 240 -5 0 -18 -9 -29 -20 -11 -11 -23 -20 -26 -20 -5 0 3 79 13 113 6 24 38 21 64 -5z m2324 -14 c76 -1 85 -6 85 -49 0 -40 -5 -44 -70 -52 -51 -6 -69 -28 -32 -39 9 -3 40 -16 67 -29 48 -22 51 -26 52 -64 2 -50 -7 -53 -122 -49 l-80 3 -3 110 c-2 61 0 129 3 153 6 38 8 42 22 30 9 -7 43 -13 78 -14z m-1054 -24 c4 -14 7 -80 8 -147 1 -135 -1 -138 -58 -106 -25 15 -35 16 -60 6 -23 -8 -33 -8 -40 1 -9 10 -6 250 3 264 2 4 35 7 72 7 64 0 69 -2 75 -25z m-3733 -179 c-2 -42 -7 -76 -13 -76 -14 0 -18 85 -9 175 l7 75 9 -49 c5 -26 7 -82 6 -125z m4397 152 c14 -14 17 -31 13 -100 -3 -62 -1 -86 9 -95 10 -8 10 -14 2 -24 -16 -19 -162 -19 -178 -1 -8 10 -8 38 0 103 17 145 11 134 78 134 43 0 64 -5 76 -17z m110 -13 c3 -5 15 -10 26 -10 33 0 86 -65 104 -126 24 -82 21 -85 -82 -82 l-88 3 -3 90 c-2 50 0 100 3 113 6 23 29 30 40 12z m-5075 -137 c0 -7 -4 -13 -10 -13 -5 0 -10 12 -10 28 0 21 2 24 10 12 5 -8 10 -21 10 -27z m1610 -23 c0 -22 -4 -40 -9 -40 -14 0 -23 37 -16 60 11 34 25 22 25 -20z m-372 -10 c30 0 44 -5 49 -16 9 -23 -15 -34 -78 -34 -67 0 -85 14 -69 54 9 26 11 26 32 12 12 -9 42 -16 66 -16z m-550 2 c2 -7 -6 -12 -17 -12 -21 0 -27 11 -14 24 9 9 26 2 31 -12z m80 -36 c-16 -19 -31 10 -17 35 l13 24 6 -25 c4 -14 3 -29 -2 -34z m-128 34 c0 -5 -7 -10 -15 -10 -8 0 -15 5 -15 10 0 6 7 10 15 10 8 0 15 -4 15 -10z m2350 -16 c0 -8 -7 -14 -15 -14 -8 0 -15 9 -15 20 0 13 5 18 15 14 8 -4 15 -12 15 -20z m-4505 -154 c-3 -5 -17 -10 -30 -10 -13 0 -27 5 -30 10 -4 6 8 10 30 10 22 0 34 -4 30 -10z m9383 -46 c22 -6 92 -111 92 -138 0 -26 -58 -56 -107 -56 -71 1 -113 42 -113 110 0 70 52 104 128 84z m1132 -70 c0 -8 -8 -17 -17 -21 -10 -3 -28 -15 -40 -25 -41 -37 -85 1 -49 41 21 23 106 27 106 5z m-5833 -151 c-2 -16 -4 -3 -4 27 0 30 2 43 4 28 2 -16 2 -40 0 -55z m4994 9 c5 -13 18 -26 29 -29 21 -6 24 -12 14 -37 -7 -19 -35 -21 -52 -4 -9 9 -15 8 -25 -6 -12 -16 -14 -16 -26 -2 -14 16 -10 103 5 127 8 13 43 -18 55 -49z m-11488 26 c7 -20 -4 -38 -22 -38 -26 0 -44 17 -38 34 7 19 53 22 60 4z m7254 -82 c-2 -70 0 -76 32 -116 l33 -41 -1 -120 c-2 -142 -6 -157 -32 -133 -13 11 -28 15 -48 11 -37 -8 -43 1 -35 53 5 33 11 41 33 47 39 9 51 22 51 56 0 35 -20 99 -35 109 -17 13 -25 9 -25 -12 0 -11 5 -20 11 -20 5 0 7 -4 4 -10 -3 -5 -13 -10 -21 -10 -19 0 -18 38 2 86 12 28 15 56 11 100 -3 34 -3 64 0 68 16 16 21 0 20 -68z m239 -24 c1 -84 2 -87 34 -115 l33 -29 3 -162 c1 -88 3 -173 4 -188 2 -57 -13 -68 -94 -68 -51 0 -77 4 -85 14 -9 10 -10 67 -5 211 l7 196 32 27 c39 33 48 59 46 135 -2 57 5 84 18 72 3 -4 7 -45 7 -93z m512 31 c1 -61 4 -70 30 -93 16 -14 34 -35 41 -47 14 -27 15 -93 1 -93 -5 0 -10 11 -10 25 0 28 -44 74 -71 75 -9 0 -28 -9 -43 -21 -25 -20 -56 -20 -56 0 0 5 18 24 40 43 39 32 40 34 42 106 3 94 24 98 26 5z m413 20 c1 -27 1 -55 0 -63 -1 -9 12 -29 29 -45 49 -47 38 -70 -19 -40 -27 13 -31 13 -53 -8 -14 -12 -28 -30 -32 -41 -5 -15 -9 -16 -21 -6 -28 23 -17 57 31 96 l46 38 -4 58 c-3 43 -1 58 9 58 9 0 13 -16 14 -47z m3684 37 c-3 -5 -15 -10 -26 -10 -10 0 -19 5 -19 10 0 6 12 10 26 10 14 0 23 -4 19 -10z m-4365 -70 c0 -45 4 -53 40 -87 22 -21 40 -46 40 -55 0 -23 -6 -23 -37 2 -33 26 -61 25 -89 -1 -25 -23 -54 -20 -54 6 0 9 18 33 40 52 37 34 40 40 40 90 0 34 4 52 10 48 6 -3 10 -28 10 -55z m-7410 19 c0 -5 -7 -9 -15 -9 -15 0 -20 12 -9 23 8 8 24 -1 24 -14z m12037 5 c6 -16 -15 -37 -29 -28 -4 3 -8 14 -8 25 0 23 28 26 37 3z m-8711 -36 c-3 -24 -5 -44 -5 -45 -1 -2 -5 -3 -10 -3 -5 0 -11 12 -13 28 -2 18 -9 27 -20 26 -10 0 -41 -1 -68 -2 -64 -2 -71 -18 -27 -65 39 -43 52 -45 84 -15 35 33 37 15 2 -21 l-31 -33 4 -116 c2 -64 8 -125 12 -134 6 -14 4 -18 -12 -18 -16 0 -20 9 -26 61 -3 34 -6 96 -6 138 l0 77 -45 47 c-43 45 -58 90 -38 110 3 4 51 7 106 7 l99 0 -6 -42z m272 11 c2 -17 -7 -37 -27 -60 -31 -34 -31 -34 -31 -8 0 14 5 30 12 37 20 20 4 25 -81 23 -53 -1 -53 -1 -46 -28 6 -26 48 -73 64 -73 4 0 12 5 19 12 21 21 22 2 3 -38 l-19 -39 -13 28 c-7 15 -16 27 -20 27 -15 0 -69 52 -69 68 0 8 -7 23 -16 33 -9 10 -14 25 -10 34 5 13 23 15 118 13 113 -3 113 -3 116 -29z m242 -3 c0 -26 -10 -45 -42 -81 -24 -26 -47 -54 -51 -62 -8 -12 -13 -11 -34 9 -49 44 -83 100 -83 135 l0 33 105 0 105 0 0 -34z m264 25 c4 -5 4 -15 1 -23 -4 -10 -24 -12 -81 -10 -42 3 -80 0 -84 -4 -13 -13 30 -93 52 -100 19 -6 20 -25 2 -31 -14 -5 -88 68 -109 108 -31 62 -21 69 104 69 60 0 112 -4 115 -9z m250 1 c8 -13 -13 -82 -24 -82 -6 0 -10 11 -10 24 0 30 -5 32 -80 28 -44 -3 -60 -8 -60 -18 0 -8 7 -17 15 -20 8 -4 15 -10 15 -15 0 -6 9 -19 19 -31 l20 -20 30 22 c26 18 31 19 31 5 0 -8 -14 -29 -31 -46 -29 -29 -49 -31 -49 -5 0 7 -11 18 -24 25 -13 7 -33 25 -43 40 -21 28 -36 85 -26 95 10 9 211 7 217 -2z m4026 -74 c21 -28 12 -49 -10 -23 -29 35 -97 3 -86 -39 3 -12 6 -39 7 -61 1 -39 1 -39 11 -12 5 15 13 27 17 27 15 0 51 -102 51 -143 0 -33 -6 -49 -25 -67 -29 -27 -31 -42 -9 -75 22 -33 11 -74 -31 -115 -57 -55 -76 -14 -25 54 17 22 30 50 30 63 0 21 -2 22 -21 12 -18 -9 -25 -8 -39 7 -16 17 -16 34 -8 189 l9 170 35 32 c18 18 34 38 34 45 0 12 17 -5 60 -64z m-2204 25 c-6 -14 -9 -15 -16 -4 -11 19 -1 46 13 32 5 -5 7 -18 3 -28z m-2110 -50 c-11 -11 -19 6 -11 24 8 17 8 17 12 0 3 -10 2 -21 -1 -24z m5479 18 c46 -12 -91 -21 -316 -21 -114 0 -190 -4 -194 -10 -3 -5 -6 -144 -6 -307 -1 -459 -13 -536 -21 -137 -8 367 -4 462 21 483 13 11 61 12 251 7 130 -4 249 -10 265 -15z m1452 -3 c20 -25 23 -76 6 -93 -16 -17 -30 -124 -16 -126 5 0 25 -2 46 -5 20 -3 46 0 57 6 15 8 21 6 30 -10 6 -11 9 -20 8 -21 -23 -6 -224 -8 -288 -3 -81 7 -83 8 -46 17 21 5 47 18 57 28 11 11 23 19 28 19 19 0 49 67 56 125 4 33 9 63 12 68 7 11 40 8 50 -5z m-8584 -15 c-13 -2 -35 -2 -50 0 -16 2 -5 4 22 4 28 0 40 -2 28 -4z m9608 -36 c-13 -13 -26 -3 -16 12 3 6 11 8 17 5 6 -4 6 -10 -1 -17z m-5812 -6 c49 -13 33 -29 -33 -33 -49 -3 -69 -9 -79 -22 -14 -19 -37 -15 -37 7 0 12 28 34 60 49 19 8 58 8 89 -1z m-2822 -134 c1 -49 -2 -67 -11 -67 -14 0 -31 114 -20 132 16 25 29 -4 31 -65z m-1277 52 c103 2 129 0 139 -13 10 -11 10 -20 1 -36 -11 -21 -16 -22 -123 -15 -62 4 -125 8 -142 8 -20 1 -31 8 -33 20 -5 27 6 49 20 41 7 -4 69 -7 138 -5z m1400 -154 c10 -142 10 -160 -4 -171 -9 -6 -16 -17 -16 -25 0 -8 -5 -21 -10 -29 -8 -13 -14 -10 -35 15 -30 38 -31 53 -2 57 21 3 22 9 30 108 10 135 18 213 22 208 1 -1 8 -75 15 -163z m3890 161 c0 -2 -7 -20 -15 -39 -19 -45 -19 -58 -1 -83 12 -15 17 -17 27 -6 7 6 21 12 31 12 13 0 18 8 18 29 0 45 12 91 21 85 5 -3 9 -59 9 -125 0 -133 -7 -149 -73 -159 -26 -4 -33 -10 -35 -33 -2 -16 5 -38 17 -53 25 -31 28 -59 6 -50 -8 3 -21 8 -28 11 -7 3 -23 -5 -36 -19 l-23 -24 57 -13 58 -13 -6 -74 c-6 -80 -14 -96 -37 -82 -13 8 -12 11 5 24 18 13 18 15 3 21 -9 4 -29 5 -45 3 -21 -2 -28 -8 -28 -24 0 -12 -14 -33 -31 -47 -29 -25 -31 -30 -27 -74 3 -27 9 -52 14 -57 5 -5 39 -12 76 -15 l67 -6 7 -35 c15 -74 15 -125 -1 -125 -11 0 -15 13 -16 51 -1 38 -7 57 -23 73 -22 22 -61 29 -61 10 0 -6 9 -13 20 -16 26 -7 25 -20 -2 -43 -17 -13 -27 -15 -35 -8 -10 8 -13 4 -13 -16 0 -23 -4 -26 -35 -26 l-35 0 0 270 c0 285 1 289 47 338 7 7 13 21 13 31 0 10 3 21 8 25 8 9 9 21 12 164 2 95 4 104 24 112 21 9 66 13 66 6z m670 -116 c0 -65 -11 -93 -30 -74 -4 5 -11 52 -14 104 l-7 95 26 -28 c22 -24 25 -37 25 -97z m-3798 8 c8 -28 8 -52 0 -90 -6 -29 -10 -69 -9 -89 1 -25 -8 -49 -31 -82 -31 -46 -62 -123 -62 -153 0 -9 -5 -12 -11 -8 -15 9 -2 143 15 164 23 29 45 126 51 228 7 123 15 153 28 102 5 -19 13 -52 19 -72z m-522 55 c0 -21 3 -54 6 -74 6 -33 4 -37 -21 -43 -17 -4 -31 -3 -35 3 -5 8 -5 95 -1 144 1 4 12 7 26 7 22 0 25 -4 25 -37z m5674 28 c8 -12 -20 -22 -40 -14 -13 5 -13 7 -2 14 17 11 35 11 42 0z m-7043 -23 c14 -26 6 -134 -16 -220 -9 -32 -15 -95 -14 -143 1 -49 -3 -91 -9 -97 -8 -8 -24 -7 -56 1 -25 6 -67 11 -94 11 -43 0 -52 4 -78 35 -18 22 -38 35 -53 35 -24 0 -24 1 -18 70 5 62 4 71 -14 80 -10 6 -19 20 -19 30 0 28 18 25 25 -3 6 -23 9 -23 63 -15 44 7 59 6 67 -5 14 -19 41 -27 52 -16 7 7 16 5 26 -5 23 -24 34 -20 39 14 6 41 0 47 -52 48 -28 0 -60 9 -82 22 -20 12 -51 22 -68 22 -24 1 -34 7 -41 25 -7 18 -16 23 -44 23 -19 0 -35 5 -35 10 0 8 20 8 63 3 34 -4 97 -8 139 -8 70 0 78 -2 87 -22 9 -19 16 -22 43 -16 74 14 80 19 76 66 -3 23 -8 50 -12 60 -12 25 11 21 25 -5z m8894 -38 c4 -6 19 -10 34 -10 16 0 43 -3 62 -7 53 -10 9 -21 -88 -22 l-83 -1 0 38 c0 21 3 42 6 45 7 7 59 -26 69 -43z m-3535 23 c7 -6 2 -152 -5 -164 -8 -11 -55 -12 -74 0 -11 7 -12 27 -6 94 l7 85 36 -5 c21 -3 39 -8 42 -10z m2488 1 c35 -9 77 -12 94 -9 35 8 138 -3 138 -14 0 -5 -44 -11 -97 -15 -54 -3 -142 -10 -197 -14 -106 -8 -114 -4 -103 41 5 19 13 22 54 24 26 1 76 -5 111 -13z m-7125 -48 c11 -11 13 -26 7 -58 -5 -24 -6 -55 -3 -70 5 -24 2 -28 -16 -28 -11 0 -21 3 -22 8 0 4 -2 35 -5 70 -3 41 -1 69 7 78 14 17 14 17 32 0z m-1589 -35 c6 -9 -182 -23 -196 -15 -5 3 -6 10 -3 15 8 11 192 12 199 0z m2499 -33 c3 -18 7 -42 9 -53 2 -16 -3 -20 -27 -20 -29 0 -30 2 -27 40 6 66 36 88 45 33z m-2727 -3 c-11 -8 -25 -15 -32 -15 -14 0 -111 -94 -131 -126 -10 -17 -12 -15 -12 19 -1 20 4 37 9 37 6 0 10 10 10 23 0 31 79 76 135 76 37 0 39 -1 21 -14z m397 0 c-3 -14 -29 -18 -69 -10 -19 3 -32 10 -28 16 8 13 100 7 97 -6z m2425 -14 c6 -36 -11 -44 -37 -17 -26 28 -20 49 12 44 14 -2 23 -11 25 -27z m6312 7 c-19 -6 -48 -16 -65 -23 -16 -7 -56 -21 -87 -30 -67 -21 -128 -75 -128 -113 0 -13 -9 -35 -20 -49 -30 -38 -27 -127 5 -190 29 -58 101 -143 121 -143 8 0 14 10 14 25 0 18 -7 28 -25 35 -30 11 -33 30 -5 30 13 0 22 9 26 25 6 26 18 32 29 15 13 -21 35 -10 35 19 0 41 19 90 40 101 14 8 18 20 17 54 -1 24 2 48 6 52 11 11 40 -8 52 -34 12 -27 54 -29 90 -6 21 13 34 14 82 6 53 -10 59 -9 76 10 14 16 20 18 32 8 8 -6 19 -9 25 -5 13 8 13 52 -1 57 -6 2 -9 17 -6 33 4 28 5 29 12 8 4 -13 11 -20 16 -17 15 9 47 78 42 91 -7 19 76 26 202 18 l115 -7 0 -44 c0 -44 -7 -53 -27 -33 -16 16 -53 1 -53 -22 0 -12 -13 -27 -30 -37 -39 -22 -35 -40 13 -59 46 -19 66 -12 73 27 15 74 31 16 44 -160 5 -63 10 -124 12 -135 2 -15 -3 -21 -24 -23 -16 -2 -28 -8 -28 -13 0 -5 -6 -9 -12 -9 -7 0 -26 -7 -42 -15 -23 -12 -32 -13 -43 -3 -10 8 -69 14 -175 16 l-159 4 5 27 c3 14 8 49 12 76 3 28 14 58 23 68 15 18 14 20 -7 37 -12 10 -26 28 -30 41 -8 20 -10 17 -26 -27 -29 -80 -30 -101 -7 -154 27 -63 27 -70 -8 -70 -16 0 -35 -7 -42 -16 -7 -9 -24 -20 -37 -25 -26 -10 -25 -34 1 -34 8 0 19 -4 23 -8 4 -4 0 -7 -9 -7 -10 0 -17 -11 -19 -32 -4 -45 -28 -46 -108 -6 -47 24 -75 46 -100 81 -32 43 -36 46 -48 30 -19 -26 -7 -77 36 -152 20 -35 48 -83 62 -107 13 -24 30 -44 36 -44 7 0 28 17 48 37 41 43 56 37 49 -19 -4 -31 -9 -38 -27 -38 -11 -1 -32 -7 -46 -15 -29 -17 -86 -20 -95 -5 -3 6 -17 10 -30 10 -18 0 -26 -7 -30 -25 -3 -14 -7 -36 -10 -48 -3 -17 3 -31 21 -47 24 -23 26 -24 67 -8 28 10 61 14 95 10 63 -6 64 -7 66 -166 1 -84 -3 -117 -13 -130 -13 -16 -15 -15 -35 4 -20 18 -23 18 -38 4 -20 -20 -29 -11 -104 104 -32 48 -89 130 -128 182 -39 53 -79 109 -88 125 -9 17 -28 39 -43 50 -25 19 -27 19 -36 2 -6 -9 -14 -17 -20 -17 -5 0 -32 -17 -60 -37 -45 -35 -48 -39 -32 -51 46 -33 74 -68 103 -128 31 -66 60 -180 60 -235 0 -43 -31 -161 -46 -180 -8 -8 -14 -22 -14 -30 0 -8 -5 -20 -11 -26 -5 -5 -12 -49 -14 -97 l-3 -86 29 0 c21 0 39 -10 58 -31 l29 -31 58 12 c33 7 86 16 119 21 91 12 167 31 196 48 15 9 46 40 69 69 23 29 49 56 58 60 20 7 35 18 71 52 l27 25 -7 120 c-3 66 -10 129 -16 140 -6 11 -13 48 -17 83 l-7 62 135 0 c140 0 163 7 132 38 -14 14 -41 17 -158 18 l-141 2 -43 53 c-40 49 -43 59 -44 111 0 50 4 62 30 92 28 32 30 39 24 84 -5 42 -3 51 13 63 11 8 22 22 26 32 5 14 11 16 26 7 23 -12 127 -12 226 -1 39 5 73 6 78 4 4 -2 -9 -24 -29 -49 -36 -44 -37 -45 -30 -111 8 -73 9 -78 25 -68 7 4 9 28 6 65 -5 48 -2 63 12 78 10 10 33 36 51 57 31 36 33 37 51 21 23 -21 56 -115 44 -127 -4 -4 -21 -9 -37 -11 -50 -5 -44 -28 7 -28 27 0 47 5 49 12 5 13 45 -25 96 -91 25 -32 26 -34 7 -47 -10 -8 -17 -14 -14 -15 2 -1 27 -3 54 -5 71 -6 78 -10 65 -33 -6 -12 -23 -21 -42 -23 -20 -2 -36 -11 -43 -23 -28 -55 -60 -87 -120 -115 l-65 -31 0 -70 c0 -62 2 -70 18 -67 10 2 18 14 20 31 3 20 15 36 44 55 23 15 56 42 74 61 33 34 54 35 54 2 0 -10 7 -24 15 -31 8 -7 15 -26 15 -42 0 -38 24 -84 53 -99 41 -22 136 -111 158 -147 36 -62 26 -213 -22 -337 -4 -11 -11 -31 -14 -45 -8 -32 -30 -89 -67 -170 -39 -85 -45 -100 -54 -130 -3 -14 -12 -32 -19 -40 -6 -8 -21 -34 -31 -57 -20 -44 -34 -50 -78 -33 -22 8 -28 6 -42 -15 -21 -33 -46 -39 -102 -26 -249 59 -426 119 -486 165 -20 15 -48 26 -65 26 -17 0 -31 5 -31 10 0 6 11 10 25 10 32 0 34 27 3 32 -13 2 -23 8 -23 13 0 6 10 11 23 13 12 2 22 7 22 12 0 10 -49 43 -73 50 -10 3 -18 10 -18 15 0 17 38 17 73 1 31 -15 49 -40 76 -108 9 -21 23 -31 63 -42 29 -9 64 -16 79 -16 14 0 31 -5 37 -11 19 -19 43 -2 43 30 0 16 7 37 16 45 8 9 13 24 10 33 -3 10 -8 34 -11 53 -3 19 -10 50 -16 68 -9 28 -8 37 7 53 9 10 24 19 33 19 9 0 36 30 61 67 25 38 59 84 77 103 22 24 29 38 22 45 -7 7 -13 4 -20 -7 -6 -10 -21 -18 -34 -18 -13 0 -27 -5 -30 -10 -9 -15 -75 -43 -115 -50 -29 -4 -35 -9 -33 -27 4 -33 -42 -53 -119 -53 -77 0 -138 -16 -138 -35 0 -11 -12 -15 -39 -15 -22 0 -43 -5 -46 -10 -4 -6 -10 -8 -14 -5 -5 2 -79 -13 -165 -35 -85 -22 -160 -40 -166 -40 -5 0 -10 15 -10 34 0 43 -16 55 -24 20 -4 -15 -13 -32 -20 -39 -7 -8 -16 -34 -19 -59 -11 -78 -29 -102 -83 -110 -117 -16 -200 -2 -240 38 -41 43 -52 107 -62 366 -13 354 -9 489 20 564 27 72 80 129 158 170 30 16 81 46 113 67 32 22 62 39 67 39 20 0 33 47 32 115 -1 100 2 105 52 105 42 0 66 13 66 37 0 8 -20 13 -57 15 l-58 3 4 175 c3 96 5 215 5 265 l1 90 85 1 c47 1 108 6 135 12 28 5 77 9 110 10 57 0 58 -1 25 -10z m1090 -3 c18 -21 5 -45 -24 -45 -30 0 -40 13 -31 40 7 24 37 26 55 5z m-10471 -182 c1 -104 3 -224 3 -268 l1 -80 -164 -8 c-90 -4 -174 -5 -186 -2 -21 5 -23 11 -23 81 0 77 24 184 41 184 5 0 14 -11 19 -25 11 -30 46 -33 55 -5 5 16 9 18 25 8 14 -9 27 -8 58 6 48 22 71 16 94 -24 20 -36 48 -40 48 -7 0 12 3 65 6 117 6 116 -1 170 -24 171 -14 0 -14 2 -2 6 8 3 19 12 23 19 4 8 11 14 16 14 4 0 9 -84 10 -187z m3450 155 c12 -20 13 -40 5 -94 -8 -65 -11 -69 -36 -72 l-28 -3 4 83 c6 121 22 145 55 86z m-4124 7 c28 -2 61 -4 75 -5 17 0 21 -3 13 -11 -6 -6 -46 -12 -89 -12 -64 -2 -79 -5 -77 -17 1 -8 -12 -24 -30 -35 -47 -30 -46 -49 5 -70 49 -19 86 -50 99 -82 6 -17 19 -23 62 -28 35 -4 62 -3 76 4 30 16 68 -3 50 -25 -10 -13 -10 -17 2 -25 33 -20 43 -10 40 38 -1 11 3 24 8 28 7 4 11 -8 11 -32 1 -21 5 -83 9 -138 9 -104 5 -117 -30 -108 -10 3 -39 2 -64 -1 -33 -5 -45 -12 -45 -24 0 -25 36 -45 60 -32 22 12 77 13 84 2 2 -4 6 -102 7 -217 l2 -210 -34 -5 c-28 -4 -34 -10 -41 -40 -4 -19 -6 -53 -3 -76 4 -31 2 -44 -11 -55 -14 -11 -18 -11 -31 6 -26 35 -1 208 27 190 11 -7 21 22 13 40 -3 9 0 36 7 61 11 38 10 58 -5 132 -20 99 -44 135 -75 107 -9 -8 -22 -15 -28 -15 -18 0 -14 -18 8 -40 11 -11 20 -22 20 -25 0 -8 -39 -6 -58 4 -9 5 -30 13 -47 17 -18 6 -50 34 -82 74 -54 65 -58 81 -42 140 6 21 -72 15 -86 -8 -5 -8 -19 -25 -30 -36 -11 -12 -36 -42 -55 -68 -38 -52 -72 -61 -78 -20 -5 30 -17 28 -32 -7 -8 -21 -9 -35 -1 -49 6 -12 11 -46 11 -76 0 -30 7 -81 15 -113 18 -70 19 -127 2 -141 -13 -12 -246 -8 -347 6 -49 6 -55 10 -54 30 0 12 1 51 2 87 2 61 4 66 30 77 15 7 32 13 37 13 6 1 31 11 58 23 49 22 56 37 35 75 -6 12 -12 31 -14 42 -1 11 -4 27 -5 35 -6 21 55 39 141 40 41 0 85 3 98 6 22 6 30 28 13 38 -5 3 -78 8 -162 10 -85 2 -164 8 -177 13 l-24 9 25 11 c27 12 37 58 37 163 0 57 20 127 33 114 10 -11 58 6 51 17 -4 6 0 15 7 20 11 6 11 16 3 49 -13 48 -3 59 27 29 12 -12 29 -23 38 -24 37 -4 72 -25 69 -42 -2 -14 4 -18 27 -18 17 -1 45 -7 63 -14 30 -13 46 -12 83 3 24 10 36 -29 44 -142 7 -87 10 -102 25 -102 24 0 30 54 30 272 l0 180 63 -7 c34 -3 85 -8 112 -10z m7493 -2 c2 -8 -6 -13 -22 -13 -25 0 -33 10 -19 24 10 10 36 3 41 -11z m2782 7 c12 -8 9 -10 -12 -10 -16 0 -28 5 -28 10 0 13 20 13 40 0z m-9911 -27 c-8 -9 -16 -10 -22 -4 -13 13 0 31 19 24 11 -4 12 -8 3 -20z m10645 2 l39 -16 -29 -18 c-19 -11 -42 -16 -66 -13 -34 4 -37 2 -40 -24 -2 -20 -12 -33 -30 -42 -24 -11 -26 -15 -16 -37 6 -14 14 -25 18 -25 14 0 28 25 32 55 4 38 28 43 68 13 26 -19 34 -20 50 -10 35 22 53 15 47 -16 -9 -42 9 -104 35 -124 32 -24 39 -22 24 7 -16 30 -9 176 8 187 6 4 20 8 31 8 12 0 39 9 60 20 l40 20 3 -56 c2 -39 -2 -63 -13 -80 -9 -14 -12 -30 -8 -37 4 -7 9 -52 10 -102 1 -49 3 -115 5 -145 l3 -55 -110 -3 c-107 -3 -227 17 -241 40 -3 4 -25 8 -48 8 l-43 0 -7 71 c-4 38 -4 145 0 236 l7 165 66 -5 c36 -3 84 -12 105 -22z m-11260 7 c7 -12 -5 -82 -14 -82 -14 0 -32 48 -25 69 6 21 29 28 39 13z m-177 -18 c5 -15 -42 -34 -80 -33 -18 1 -25 3 -16 6 10 2 19 13 22 24 4 16 12 20 38 17 18 -2 34 -8 36 -14z m3803 -39 c0 -5 25 -29 56 -53 32 -25 54 -49 51 -56 -3 -7 -9 -55 -13 -106 l-7 -93 -66 7 c-36 3 -81 6 -98 6 -28 0 -33 4 -33 24 0 13 6 27 13 30 7 4 8 8 2 11 -28 15 -33 24 -40 72 l-7 51 51 52 c28 29 51 60 51 69 0 10 3 21 7 24 7 7 32 -22 33 -38z m4325 5 c10 -45 -48 -135 -82 -128 -20 4 -19 28 2 68 8 14 22 41 31 61 20 42 40 41 49 -1z m-1144 9 c23 -16 33 -18 44 -9 11 9 15 5 20 -22 4 -19 5 -50 3 -69 l-3 -34 -55 0 -55 0 -3 64 c-3 63 1 91 14 91 3 0 19 -9 35 -21z m669 -54 c0 -19 5 -37 10 -40 6 -3 10 -15 10 -26 0 -14 -7 -19 -29 -19 -20 0 -34 -8 -46 -26 -21 -32 -38 -19 -37 27 0 20 11 43 30 63 16 17 32 39 35 49 10 28 27 10 27 -28z m-3674 10 c16 -8 42 -15 57 -15 37 0 42 -20 21 -77 -22 -57 -69 -113 -95 -113 -16 0 -17 4 -8 27 6 15 13 30 17 33 9 7 32 58 32 72 0 6 -11 8 -29 5 -22 -5 -34 0 -54 21 -26 27 -25 44 3 55 23 8 26 8 56 -8z m448 -46 c9 -18 16 -39 16 -48 0 -21 -45 34 -59 72 -9 25 -8 26 9 17 10 -5 26 -24 34 -41z m-2678 7 c21 -33 15 -70 -13 -74 -12 -2 -27 -10 -34 -19 -11 -13 -10 -18 6 -30 14 -11 16 -17 8 -20 -18 -7 -16 -33 2 -33 9 0 18 -7 21 -15 7 -18 31 -20 37 -2 6 16 87 -62 87 -84 0 -13 -10 -19 -37 -21 -30 -2 -38 -8 -43 -28 -5 -18 -12 -24 -26 -22 -10 2 -26 4 -34 5 -19 3 -15 -33 6 -49 11 -9 13 -24 8 -68 -7 -57 -18 -71 -29 -37 -3 11 -30 36 -59 55 -51 34 -86 83 -86 119 0 9 -11 28 -25 43 -29 31 -33 75 -9 95 14 11 18 11 29 -4 7 -9 17 -17 23 -17 17 0 44 59 38 83 -3 11 4 38 15 60 10 23 19 51 19 64 0 20 5 23 40 23 31 0 43 -5 56 -24z m1644 4 c0 -10 -11 -36 -25 -56 -21 -30 -26 -34 -31 -19 -4 10 -2 25 4 34 7 9 16 26 22 39 12 27 30 29 30 2z m4501 -22 c10 -19 9 -24 -10 -36 -24 -17 -28 -42 -6 -42 8 0 15 -4 15 -10 0 -15 -17 -12 -46 7 -20 13 -24 21 -19 42 6 25 33 59 47 60 4 1 13 -9 19 -21z m-3751 -110 c0 -10 5 -18 10 -18 6 0 10 -7 10 -15 0 -14 -3 -13 -25 2 -13 10 -25 26 -25 35 0 9 -4 20 -10 23 -5 3 -10 16 -10 28 0 20 2 20 25 -8 13 -16 24 -38 25 -47z m4341 21 c3 -5 6 -61 7 -124 l1 -114 -32 -6 c-18 -4 -57 -5 -87 -3 l-55 3 -3 110 c-2 61 0 121 3 134 6 23 8 24 83 17 42 -4 79 -12 83 -17z m-1313 -26 c2 -9 -9 -13 -37 -13 -46 0 -52 6 -18 20 28 11 49 9 55 -7z m-8028 -45 c0 -28 29 -42 31 -15 1 6 2 19 3 27 3 32 29 13 42 -30 8 -25 14 -48 14 -52 0 -5 -32 -8 -71 -8 l-71 0 6 28 c23 93 28 105 37 91 5 -8 9 -26 9 -41z m8832 25 c9 -5 8 -357 -1 -371 -3 -5 -15 -11 -26 -13 -15 -3 -22 -16 -29 -49 -5 -25 -11 -47 -13 -50 -10 -12 -22 28 -17 56 3 18 1 35 -5 38 -7 5 -11 -8 -11 -39 0 -44 -1 -46 -26 -43 l-26 3 1 234 c1 129 5 239 8 244 5 9 129 1 145 -10z m-6767 -50 c10 -32 24 -69 31 -83 6 -14 15 -40 19 -57 l7 -33 -44 0 -43 0 -1 115 c0 63 2 115 6 115 3 0 14 -26 25 -57z m814 9 c-1 -70 -18 -82 -18 -14 -1 40 3 61 9 57 6 -3 10 -23 9 -43z m132 19 c49 -24 71 -26 99 -9 15 10 22 9 38 -6 12 -10 43 -20 77 -23 31 -3 52 -9 48 -14 -4 -4 -55 -12 -113 -17 -84 -8 -110 -7 -132 4 -15 8 -33 12 -40 9 -7 -2 -28 -1 -47 3 -27 6 -36 14 -42 36 -5 16 -6 34 -2 39 8 13 63 2 114 -22z m4929 15 c0 -7 -13 -16 -29 -19 -18 -4 -31 -14 -36 -29 -7 -21 -7 -22 -12 -3 -3 10 0 21 6 23 6 2 11 10 11 17 0 14 15 23 43 24 9 1 17 -5 17 -13z m-3962 -28 c-3 -7 -11 -13 -18 -13 -7 0 -15 6 -17 13 -3 7 4 12 17 12 13 0 20 -5 18 -12z m468 -18 c33 -13 30 -32 -3 -28 -23 2 -28 8 -30 33 -1 17 0 24 3 17 4 -7 17 -17 30 -22z m4044 -35 c0 -35 5 -59 16 -69 23 -23 25 -20 18 23 -4 24 -2 41 5 45 6 4 11 17 12 29 0 21 1 21 8 2 14 -34 21 -99 12 -113 -4 -7 -31 -15 -61 -19 l-53 -6 8 79 c4 43 9 82 12 87 12 19 23 -9 23 -58z m547 49 c25 -5 29 -18 37 -105 l4 -56 -80 -6 c-44 -4 -85 -4 -89 -1 -10 6 -12 167 -3 177 6 6 86 0 131 -9z m2097 10 c20 -8 21 -24 1 -24 -11 0 -15 -11 -15 -40 0 -43 -14 -54 -24 -17 -9 35 -7 62 6 75 14 14 12 14 32 6z m1828 -24 c10 -12 22 -39 28 -61 9 -34 41 -69 62 -69 4 0 10 16 14 35 9 49 24 34 24 -24 l0 -48 -97 -6 c-145 -8 -269 -9 -319 -1 l-44 6 1 57 c1 58 15 134 18 96 2 -33 18 -52 32 -38 7 7 17 9 23 4 6 -5 32 -12 58 -15 l48 -7 -10 26 c-12 33 -7 42 33 60 44 19 108 12 129 -15z m-8955 -47 c18 -3 38 -12 45 -20 10 -12 4 -14 -37 -11 -60 4 -75 -18 -18 -27 68 -11 67 -10 77 -154 10 -163 10 -165 -87 -159 -45 2 -72 9 -78 18 -6 9 -9 79 -6 177 4 173 11 200 51 188 12 -3 36 -8 53 -12z m726 -28 c-2 -5 -29 -11 -60 -13 -32 -2 -62 -7 -69 -13 -14 -11 -39 15 -29 31 9 14 161 9 158 -5z m-1605 -1 c12 -3 22 -11 22 -19 0 -12 -14 -15 -64 -15 -61 0 -84 9 -72 29 6 9 75 12 114 5z m-262 -41 c-11 -11 -19 6 -11 24 8 17 8 17 12 0 3 -10 2 -21 -1 -24z m1623 -201 c1 -80 0 -83 -25 -93 -15 -5 -36 -7 -47 -3 -12 4 -72 6 -134 5 -113 -1 -114 0 -123 25 -11 29 -13 91 -4 156 7 48 37 79 57 59 6 -6 23 -11 38 -11 20 0 33 -9 49 -35 12 -19 26 -35 32 -35 5 0 23 14 38 30 30 32 60 40 60 15 0 -33 20 -12 32 33 l13 47 6 -55 c4 -30 7 -92 8 -138z m-2164 148 c7 -5 20 -43 30 -83 9 -39 23 -87 31 -106 8 -18 14 -41 14 -50 0 -9 9 -27 20 -41 26 -33 25 -50 -3 -50 -31 0 -52 -19 -65 -57 -15 -46 -1 -59 79 -77 17 -4 33 -18 43 -38 9 -18 27 -53 41 -78 21 -38 25 -58 25 -130 0 -47 -3 -109 -6 -138 l-7 -52 -29 40 c-16 22 -33 40 -38 40 -4 0 -10 8 -14 18 -3 9 -14 31 -25 47 -11 17 -31 52 -45 78 -14 26 -64 106 -111 176 -47 71 -85 133 -85 139 0 10 -25 33 -144 134 l-31 26 20 22 c11 12 25 38 30 58 7 23 21 41 40 52 17 9 31 27 33 39 3 16 9 22 21 18 10 -2 32 3 49 12 35 18 106 19 127 1z m6714 -16 c23 -5 31 -12 31 -28 0 -12 4 -26 9 -31 5 -6 12 -25 16 -42 6 -29 4 -34 -19 -43 -20 -7 -27 -19 -32 -50 -8 -48 -24 -63 -25 -23 l0 28 -16 -22 c-15 -22 -66 -32 -76 -15 -3 4 -8 58 -12 120 l-7 112 50 0 c27 0 64 -3 81 -6z m321 -20 c11 -11 15 -39 15 -108 0 -52 -3 -92 -7 -89 -5 2 -8 19 -8 38 0 40 -8 65 -22 65 -19 0 -47 -45 -48 -76 0 -17 -3 -60 -7 -95 l-7 -64 -10 60 -11 60 -44 0 -43 0 1 109 c1 61 4 112 6 116 7 12 170 -2 185 -16z m-8200 -57 c0 -4 12 -26 26 -49 l26 -42 -32 -26 c-32 -26 -33 -27 -15 -53 12 -18 26 -27 44 -27 15 0 32 -5 39 -12 9 -9 17 -9 36 1 36 20 76 -9 76 -54 0 -27 -4 -34 -22 -37 -17 -2 -26 -14 -36 -43 -22 -70 -134 -145 -187 -124 -11 4 -30 8 -42 8 -21 1 -23 -4 -23 -49 0 -47 2 -50 25 -50 18 0 28 -7 35 -25 8 -20 13 -23 32 -16 13 4 23 15 23 22 0 9 15 16 40 20 48 7 91 24 100 38 11 19 25 12 45 -21 24 -39 26 -96 5 -124 -8 -10 -15 -28 -15 -40 0 -12 -12 -52 -26 -90 -14 -38 -29 -82 -31 -99 -3 -16 -13 -38 -22 -49 -15 -17 -27 -18 -161 -12 -164 6 -199 12 -207 34 -7 17 60 152 86 176 16 15 19 14 30 -10 l11 -26 47 27 46 28 34 -37 c36 -38 56 -45 70 -23 16 25 33 83 33 115 0 32 0 32 -52 33 -29 1 -70 1 -91 0 -22 -2 -48 4 -62 13 -25 16 -26 16 -70 -29 -24 -26 -50 -57 -57 -70 -35 -63 -101 -167 -123 -193 -66 -78 -82 -173 -51 -292 19 -73 34 -186 43 -306 l5 -82 -41 -7 c-40 -7 -41 -8 -41 -46 0 -21 -4 -39 -10 -39 -5 0 -10 18 -10 40 0 26 -5 42 -17 48 -15 9 -15 15 1 88 33 143 35 158 29 211 -7 61 -18 68 -97 59 -28 -3 -57 -2 -65 3 -18 12 -29 365 -12 375 6 4 52 10 101 13 139 9 130 26 -18 37 -39 3 -77 8 -82 11 -6 4 -10 72 -10 169 0 194 -19 176 181 176 183 0 224 -6 240 -36 12 -24 39 -33 39 -14 0 6 -7 25 -16 42 -20 38 -12 78 15 71 30 -8 34 34 6 71 -49 64 -30 148 25 114 25 -16 47 3 55 47 5 26 1 33 -29 54 -35 23 -35 23 -20 53 9 17 34 50 57 75 l40 44 23 -28 c13 -15 23 -31 24 -36z m-1083 43 c21 0 22 -3 20 -92 -2 -71 2 -101 15 -126 l17 -33 -30 -6 c-27 -5 -29 -9 -24 -33 8 -37 -20 -48 -50 -20 -23 22 -60 26 -71 8 -4 -6 0 -16 9 -23 10 -7 17 -17 17 -23 0 -18 18 -24 38 -13 15 8 24 5 42 -14 32 -34 20 -55 -31 -55 -32 0 -42 4 -46 20 -4 15 -11 18 -28 14 -19 -5 -28 1 -49 35 -33 52 -36 120 -6 128 11 3 20 14 20 24 0 25 44 43 71 29 50 -27 88 61 46 108 -29 31 -68 28 -107 -8 -18 -17 -37 -27 -41 -23 -4 4 -9 28 -11 53 l-3 45 40 7 c22 3 63 4 90 2 28 -2 60 -4 72 -4z m12780 -7 c28 -13 39 -14 54 -5 37 24 79 8 79 -29 0 -10 5 -21 12 -25 7 -5 9 -2 5 9 -3 8 0 20 7 26 21 18 33 -8 28 -58 -3 -32 -9 -45 -23 -48 -23 -6 -24 -16 -5 -32 8 -6 17 -33 21 -59 13 -87 20 -68 25 66 8 210 25 164 28 -78 2 -191 -2 -233 -22 -202 -3 5 -101 6 -219 4 -176 -4 -215 -2 -218 9 -2 8 -3 103 -1 211 l3 197 42 15 c57 20 141 20 184 -1z m-11034 -15 c15 -6 52 -8 82 -5 l54 5 3 -85 3 -84 -32 -16 c-18 -8 -33 -19 -33 -24 0 -5 -12 -14 -27 -19 -61 -22 -102 -43 -98 -50 2 -4 36 -10 74 -13 85 -7 136 -32 190 -93 77 -88 117 -210 108 -331 -5 -78 -10 -97 -50 -183 -21 -45 -52 -79 -74 -80 -16 0 -26 -53 -18 -101 7 -41 28 -80 78 -146 15 -19 27 -48 27 -62 0 -22 16 -35 113 -92 61 -36 134 -75 160 -87 51 -24 60 -22 117 20 14 10 57 30 95 43 168 61 498 33 596 -49 l34 -29 5 69 c4 61 7 69 25 69 19 0 20 -7 20 -164 0 -118 -4 -172 -13 -190 -8 -14 -19 -71 -24 -126 -6 -55 -17 -107 -24 -116 -9 -10 -14 -41 -14 -85 0 -64 -11 -106 -24 -93 -3 3 -7 47 -9 98 -3 51 -8 96 -13 101 -6 6 -20 1 -36 -13 -25 -20 -28 -31 -35 -118 -7 -73 -5 -99 4 -108 8 -7 13 -36 13 -71 0 -43 4 -61 15 -68 19 -10 30 -69 21 -116 -11 -57 -23 -42 -28 32 -3 59 -7 71 -35 98 -18 17 -35 29 -38 26 -12 -13 -5 -90 10 -96 8 -3 15 -15 15 -26 0 -15 -7 -20 -24 -20 -22 0 -25 -5 -31 -48 -3 -26 -12 -67 -19 -92 -8 -25 -17 -111 -20 -191 -3 -94 -11 -159 -20 -180 -8 -19 -19 -45 -24 -59 -8 -20 -11 0 -12 90 -1 63 -7 140 -13 170 -12 55 -12 55 -46 52 -31 -3 -34 -2 -21 12 11 14 11 21 0 41 -7 13 -10 30 -7 38 7 19 -13 98 -23 92 -4 -2 -9 -54 -12 -115 -4 -99 -10 -131 -22 -119 -7 7 -37 174 -51 284 -8 55 -18 134 -23 175 -6 41 -16 122 -22 180 -12 111 -23 138 -46 119 -8 -6 -25 -8 -39 -5 -20 5 -25 12 -23 29 2 18 -2 23 -27 25 l-30 3 8 -103 c4 -57 12 -117 18 -134 5 -17 9 -52 9 -78 0 -25 7 -63 15 -83 16 -38 21 -173 6 -173 -11 0 -21 36 -21 81 0 20 -7 53 -15 72 -8 20 -15 55 -15 77 0 22 -9 57 -20 77 -12 23 -20 57 -20 86 0 26 -7 62 -16 79 -11 22 -14 45 -10 75 3 23 1 55 -6 70 -6 16 -12 60 -14 100 -1 40 -7 97 -14 126 -11 53 -12 55 -48 60 -20 2 -66 18 -102 35 -36 16 -95 40 -132 52 -92 29 -112 47 -103 88 3 17 20 43 36 56 33 28 37 46 10 46 -11 0 -50 -33 -90 -76 -66 -70 -71 -79 -71 -120 0 -69 -28 -58 -110 45 -22 27 -33 31 -80 35 l-55 3 0 -44 c1 -32 6 -48 19 -55 16 -9 16 -11 2 -27 -15 -16 -14 -19 9 -29 26 -12 33 -40 14 -59 -8 -8 -8 -17 1 -32 16 -30 -13 -39 -51 -17 -30 18 -82 15 -94 -5 -4 -5 -21 -9 -39 -9 -32 0 -34 3 -38 38 -3 24 1 47 13 66 10 16 15 34 11 40 -4 6 -7 45 -7 86 -1 299 -3 325 -32 356 l-26 29 6 -44 c3 -27 0 -58 -10 -85 -8 -22 -15 -71 -16 -108 -2 -67 -9 -85 -21 -50 -3 9 -10 24 -15 32 -5 8 -19 49 -32 90 -29 91 -31 223 -5 284 9 21 16 49 16 62 0 40 66 173 93 185 25 11 67 96 67 134 0 17 2 17 10 5 5 -8 10 -36 10 -62 0 -34 4 -48 14 -48 7 0 16 10 19 21 4 15 11 20 21 16 14 -5 16 5 16 67 0 68 2 75 25 90 36 23 33 56 -4 56 -28 0 -29 2 -40 75 -12 85 -15 348 -4 359 11 10 191 -3 226 -16z m6733 11 c55 -14 64 -32 64 -125 0 -48 -3 -64 -12 -61 -9 3 -12 20 -10 50 2 36 -2 51 -18 67 -11 11 -26 20 -34 20 -13 0 -13 -4 0 -27 13 -27 13 -28 -10 -31 -25 -3 -35 -24 -37 -77 0 -29 -1 -29 -11 -7 -7 13 -20 22 -33 22 -13 0 -27 6 -32 13 -11 13 -2 135 11 156 9 14 65 14 122 0z m3998 -21 c3 -13 8 -90 11 -173 3 -82 7 -168 8 -190 l2 -40 -54 -3 c-73 -4 -95 3 -109 33 -10 22 -8 33 15 77 24 46 27 63 26 138 0 59 -6 97 -17 118 -29 55 -24 62 49 62 59 0 65 -2 69 -22z m-2569 -178 c19 -8 19 -9 -2 -9 -12 -1 -25 4 -28 9 -7 12 2 12 30 0z m243 -7 c-10 -2 -28 -2 -40 0 -13 2 -5 4 17 4 22 1 32 -1 23 -4z m135 0 c-13 -2 -35 -2 -50 0 -16 2 -5 4 22 4 28 0 40 -2 28 -4z m-1773 -269 c0 -6 -10 -18 -22 -27 -20 -13 -21 -17 -8 -29 24 -23 112 -39 153 -27 46 12 51 22 33 58 -14 26 -14 30 0 42 9 7 20 23 25 36 12 32 22 29 54 -16 26 -38 26 -41 12 -71 -15 -28 -14 -31 6 -41 24 -13 155 -5 170 10 7 7 4 19 -7 37 -17 25 -17 27 10 55 35 36 45 36 72 0 19 -26 19 -31 6 -42 -8 -7 -14 -24 -12 -38 3 -22 9 -27 38 -29 19 -2 40 -10 47 -19 15 -19 47 -12 88 22 23 19 27 27 17 37 -18 18 -14 49 10 75 l22 23 23 -22 c24 -22 30 -52 13 -63 -18 -11 -10 -34 25 -69 39 -40 48 -82 15 -73 -10 3 -27 -1 -37 -9 -24 -18 -50 -18 -57 1 -3 9 -18 15 -40 15 -26 0 -38 6 -47 22 l-12 22 -15 -22 c-8 -12 -21 -22 -29 -22 -8 0 -28 -8 -44 -17 -24 -14 -33 -15 -49 -5 -11 6 -29 12 -40 12 -11 0 -23 7 -26 15 -5 13 -9 13 -21 3 -12 -10 -18 -9 -29 6 -16 23 -44 14 -44 -13 0 -26 -43 -38 -82 -23 -15 5 -37 8 -49 5 -12 -3 -24 -1 -28 4 -9 14 -89 25 -96 13 -3 -5 -22 -10 -41 -10 -20 0 -44 -4 -54 -10 -13 -7 -25 -4 -45 12 -27 21 -28 21 -41 3 -17 -23 -31 -11 -36 30 -2 20 -9 31 -22 33 -15 3 -18 -1 -14 -22 8 -38 -11 -56 -64 -61 -42 -5 -49 -2 -73 26 -25 30 -26 31 -32 10 -3 -11 -9 -21 -13 -21 -17 0 -64 76 -51 84 4 3 27 8 49 12 31 5 42 11 42 24 0 10 -7 20 -15 24 -20 7 -19 18 8 60 27 43 39 44 72 9 28 -31 32 -51 10 -59 -18 -7 -20 -35 -3 -52 13 -13 92 -14 143 -3 28 6 30 10 27 45 -2 22 3 45 11 55 8 9 17 25 21 35 6 18 10 16 41 -14 19 -19 35 -39 35 -46z m-6044 29 c10 -21 19 -41 21 -45 2 -5 -2 -8 -9 -8 -7 0 -23 18 -35 40 -27 46 -28 50 -8 50 8 0 22 -17 31 -37z m-2699 -28 c13 -19 41 -44 63 -55 22 -11 40 -27 40 -35 0 -21 27 -19 39 3 6 10 7 28 4 40 -5 21 -2 22 52 22 55 0 57 -1 49 -22 -4 -13 -7 -42 -7 -65 0 -43 -18 -60 -31 -28 -8 23 -53 18 -67 -7 l-12 -22 -23 30 c-23 28 -24 28 -24 6 0 -31 -23 -37 -59 -16 -41 24 -61 7 -61 -53 0 -74 61 -114 112 -74 31 25 45 26 106 6 38 -13 50 -23 64 -53 21 -43 33 -183 20 -226 -10 -36 -28 -44 -35 -16 -7 26 -27 26 -27 0 0 -52 -73 6 -218 173 -94 109 -136 179 -120 195 7 7 1 24 -21 54 -25 35 -30 50 -25 76 6 31 7 31 50 25 l44 -6 0 33 c0 27 3 32 19 27 12 -3 22 1 25 9 8 22 19 17 43 -21z m12418 -54 c-8 -17 -20 -31 -25 -31 -19 0 -10 54 13 78 21 23 22 23 25 4 2 -12 -4 -34 -13 -51z m303 37 c14 -14 17 -238 4 -238 -10 0 -22 22 -53 100 -13 30 -27 58 -32 61 -5 4 -9 21 -10 40 -2 29 1 34 28 40 46 10 50 10 63 -3z m490 -11 l32 0 0 -184 0 -183 -80 0 c-79 0 -80 0 -80 25 0 32 -33 46 -87 38 -44 -7 -53 -16 -53 -59 0 -23 5 -33 20 -37 19 -5 20 -13 19 -139 0 -78 -6 -154 -14 -183 -8 -27 -17 -68 -21 -90 -5 -33 -8 -37 -14 -20 -5 11 -9 31 -9 46 -1 40 -19 51 -51 32 -57 -33 -60 -24 -60 194 0 109 -5 218 -11 243 -12 52 -29 311 -21 324 3 5 86 6 201 1 108 -4 211 -8 229 -8z m-6008 -394 c12 -75 12 -84 -3 -101 -20 -22 -23 -114 -4 -130 17 -14 15 -209 -3 -241 -8 -16 -10 -43 -7 -79 3 -30 3 -51 -1 -47 -4 4 -7 212 -7 463 0 251 3 403 6 337 3 -66 12 -157 19 -202z m-6847 168 c44 -40 72 -95 112 -221 21 -63 47 -144 58 -180 12 -36 22 -73 22 -82 0 -9 7 -23 16 -30 21 -17 49 -64 49 -81 0 -9 -15 -16 -41 -20 -54 -7 -68 -21 -50 -49 12 -19 11 -20 -7 -16 -14 4 -29 -4 -48 -23 -15 -16 -33 -29 -40 -29 -21 0 -28 22 -12 34 20 15 41 56 32 64 -4 4 -9 1 -11 -5 -3 -7 -13 -13 -23 -13 -9 0 -23 -7 -30 -15 -7 -8 -27 -15 -44 -15 -47 0 -76 -11 -76 -27 0 -18 -46 -10 -71 13 -20 18 -39 89 -38 136 1 32 1 31 13 -11 13 -48 34 -65 43 -33 3 14 16 22 45 26 93 15 147 65 148 137 0 38 -4 48 -22 56 -22 10 -22 10 7 24 28 14 30 18 27 64 -2 38 -19 82 -72 190 -39 77 -70 146 -70 153 0 15 39 -7 83 -47z m3361 3 c13 -5 16 -22 16 -80 0 -73 -1 -75 -32 -94 l-33 -20 -3 78 c-4 115 4 134 52 116z m5088 -519 c-3 -323 -11 -425 -35 -425 -11 0 -8 605 4 765 22 291 36 140 31 -340z m678 474 c15 -27 -5 -81 -29 -77 -12 3 -15 13 -12 43 5 61 21 73 41 34z m-503 -69 c2 -50 -2 -81 -11 -96 -13 -18 -13 -23 2 -38 16 -16 15 -19 -10 -41 -16 -13 -28 -29 -28 -35 0 -17 -26 -40 -44 -40 -23 0 -20 15 10 47 38 41 43 61 37 150 -7 97 1 136 25 131 14 -3 17 -16 19 -78z m-5552 -60 c-1 -117 -2 -125 -20 -125 -17 0 -20 7 -21 55 -1 30 -2 60 -4 65 -1 6 -2 38 -1 73 1 60 2 63 24 60 21 -3 22 -6 22 -128z m5808 66 c1 -42 -18 -69 -33 -46 -14 21 -12 74 2 88 17 17 30 0 31 -42z m347 9 c0 -14 -4 -25 -10 -25 -11 0 -14 33 -3 43 11 11 13 8 13 -18z m-1085 -65 c0 -36 -29 -33 -33 3 -3 23 0 28 15 25 12 -2 18 -12 18 -28z m-4251 -8 c-1 -7 -2 -37 -2 -69 -2 -73 -8 -66 -15 20 -5 52 -3 67 6 64 7 -2 12 -9 11 -15z m8891 -44 c-10 -32 -19 -40 -38 -32 -17 6 -23 35 -10 47 3 4 17 7 30 7 21 0 23 -4 18 -22z m-3689 -61 c3 -8 -8 -28 -25 -46 -28 -30 -30 -31 -36 -10 -5 14 0 28 16 45 25 27 37 30 45 11z m-236 -9 c0 -7 -20 -31 -45 -55 -25 -23 -45 -41 -45 -39 0 7 26 52 45 78 21 28 45 37 45 16z m3860 -8 c0 -11 9 -34 20 -52 24 -40 25 -48 5 -48 -8 0 -15 -5 -15 -10 0 -6 7 -13 15 -16 10 -4 15 -20 15 -43 0 -30 -5 -40 -25 -49 -18 -8 -26 -8 -31 0 -8 13 -23 218 -17 231 8 15 33 6 33 -13z m-9313 -67 c-3 -10 -5 -2 -5 17 0 19 2 27 5 18 2 -10 2 -26 0 -35z m4690 12 c-41 -38 -47 -41 -47 -24 0 23 36 58 60 59 24 0 24 -1 -13 -35z m-5067 -34 c0 -24 -5 -41 -14 -44 -8 -3 -16 -16 -18 -28 -2 -12 -9 -24 -15 -27 -19 -6 -16 53 2 68 8 7 15 22 15 35 0 12 3 25 7 28 15 16 23 5 23 -32z m6795 25 l40 -14 -1 -70 c0 -81 -28 -159 -49 -142 -10 9 -14 -14 -20 -102 -3 -62 -6 -129 -6 -148 1 -19 -2 -96 -6 -170 l-8 -135 -25 0 -25 0 -7 385 c-3 212 -3 388 0 392 4 3 18 8 32 11 14 2 27 5 30 5 3 1 23 -5 45 -12z m455 -10 c21 -10 24 -17 22 -51 -2 -21 -10 -44 -17 -50 -17 -13 -29 -71 -17 -79 10 -6 -4 -56 -23 -86 -16 -26 -14 -103 4 -135 34 -58 35 -85 6 -115 -26 -27 -26 -29 -10 -60 15 -30 15 -33 0 -51 -10 -10 -15 -25 -12 -33 3 -8 0 -22 -8 -33 -12 -17 -14 -16 -20 12 -3 17 -10 38 -16 47 -5 10 -11 91 -14 180 -3 90 -7 230 -10 311 -5 146 -5 148 18 156 24 10 57 5 97 -13z m-10395 -7 c0 -7 -8 -15 -17 -17 -18 -3 -25 18 -11 32 10 10 28 1 28 -15z m10209 1 c7 -7 10 -54 7 -138 -1 -70 -4 -188 -5 -262 l-1 -135 -28 -3 c-32 -4 -45 -26 -27 -47 9 -11 8 -19 -4 -37 -9 -12 -16 -37 -16 -55 0 -47 -26 -43 -33 5 -3 20 -11 66 -16 102 -6 36 -16 177 -21 315 -10 235 -10 250 7 263 21 16 119 10 137 -8z m-6794 -22 c0 -27 -38 -108 -51 -108 -14 0 -10 56 5 69 7 6 16 25 20 42 6 33 26 31 26 -3z m473 19 c7 -20 -5 -117 -14 -111 -5 3 -9 17 -9 32 0 57 -18 56 -25 -2 -9 -68 -20 -78 -35 -31 -12 36 -27 44 -48 23 -10 -10 -15 -10 -22 2 -14 22 -12 88 2 92 33 11 146 7 151 -5z m-3795 -4 c-10 -2 -28 -2 -40 0 -13 2 -5 4 17 4 22 1 32 -1 23 -4z m9195 -22 c4 -4 6 -61 5 -127 l-3 -119 -65 3 c-36 2 -66 5 -67 6 -6 5 -15 228 -9 241 5 15 15 17 69 11 34 -4 66 -11 70 -15z m-553 -6 c7 -8 21 -15 32 -15 24 0 26 -7 31 -114 l4 -88 -33 -14 c-47 -20 -120 -18 -128 2 -3 9 -6 58 -6 109 l0 93 33 21 c38 25 51 26 67 6z m-8770 -29 c0 -38 -14 -55 -24 -30 -7 19 3 64 15 64 5 0 9 -15 9 -34z m3617 -24 c15 -15 17 -48 4 -56 -10 -6 -21 16 -21 41 0 8 -7 21 -15 29 -8 8 -11 22 -8 31 6 14 8 13 17 -8 6 -13 16 -30 23 -37z m8927 42 c3 -9 6 -38 6 -65 0 -41 -4 -51 -25 -65 -30 -20 -45 -11 -45 26 0 30 38 120 51 120 4 0 10 -7 13 -16z m446 -79 c2 -94 2 -95 -14 -95 -19 0 -30 116 -15 159 16 47 27 22 29 -64z m-9456 63 c10 -40 7 -71 -11 -90 -34 -38 -58 -12 -47 51 11 60 46 84 58 39z m5544 -7 c9 -11 12 -46 10 -116 l-3 -100 -65 -6 c-36 -3 -68 -3 -72 0 -4 3 -10 53 -14 111 -8 131 -2 142 79 133 30 -3 57 -12 65 -22z m-5860 -40 c-2 -15 -9 -26 -18 -26 -16 0 -25 37 -16 62 10 25 38 -5 34 -36z m5167 -66 l0 -90 -65 0 -65 0 -3 79 c-2 44 -1 85 2 93 4 10 22 13 68 11 l63 -3 0 -90z m4122 -60 c-4 -12 -57 -20 -57 -8 0 5 7 19 17 32 15 23 17 23 30 5 7 -10 12 -23 10 -29z m-8934 -45 c13 -12 4 -277 -9 -290 -7 -7 -39 -14 -72 -17 -82 -8 -88 3 -96 169 -8 160 -5 163 98 153 39 -3 75 -10 79 -15z m7745 9 c-2 -6 -8 -10 -13 -10 -5 0 -11 4 -13 10 -2 6 4 11 13 11 9 0 15 -5 13 -11z m-11404 -47 c-15 -15 -23 -16 -37 -8 -16 10 -14 12 15 17 18 4 35 7 37 8 3 0 -4 -7 -15 -17z m276 -41 c0 -5 -9 -13 -20 -16 -11 -3 -20 -13 -20 -20 0 -24 -21 -28 -27 -6 -3 12 -16 24 -29 27 -44 11 -25 24 36 24 33 0 60 -4 60 -9z m3850 -81 c0 -11 -7 -20 -15 -20 -18 0 -19 12 -3 28 16 16 18 15 18 -8z m6980 -64 c0 -28 7 -94 14 -146 14 -91 14 -96 -5 -116 -14 -15 -16 -23 -7 -32 9 -9 8 -16 -4 -29 -12 -15 -13 -31 -7 -88 5 -38 12 -114 15 -167 l7 -97 -34 -9 c-55 -15 -73 0 -65 57 4 25 11 90 16 143 5 54 12 108 15 121 5 19 0 29 -21 46 -15 12 -31 20 -36 19 -14 -5 -47 -108 -48 -145 0 -17 -4 -34 -9 -37 -5 -3 -12 -18 -15 -33 -4 -16 -13 -41 -20 -58 -42 -92 -68 -203 -71 -308 -2 -62 9 -77 55 -77 11 0 33 -6 48 -14 19 -10 85 -16 221 -20 107 -3 196 -8 198 -10 2 -2 -31 -7 -74 -10 -43 -4 -98 -10 -123 -13 l-45 -7 50 -8 c28 -5 82 -12 120 -16 l70 -7 -3 -140 c-3 -94 -8 -147 -17 -161 -9 -14 -40 -28 -100 -43 -88 -24 -89 -24 -279 -5 -48 5 -61 3 -68 -10 -12 -21 -68 -22 -68 -1 0 8 9 15 19 15 29 0 35 17 9 26 -13 4 -26 12 -30 18 -12 17 -10 344 2 351 7 4 6 14 -1 28 -8 14 -10 65 -6 161 6 137 22 229 53 290 7 16 14 39 14 51 0 13 7 28 15 35 9 8 15 29 15 55 0 24 8 57 17 74 14 23 15 33 6 42 -8 8 -15 4 -26 -17 -8 -16 -27 -40 -41 -53 -21 -20 -28 -22 -41 -11 -10 8 -29 10 -59 6 -62 -10 -132 27 -96 49 18 11 11 23 -22 36 -30 13 -18 14 132 19 l165 5 13 28 c7 15 15 60 18 100 13 197 28 208 40 30 9 -142 6 -147 33 60 10 76 26 104 47 86 9 -7 14 -32 14 -63z m-1409 -18 c26 -9 55 -21 65 -26 11 -6 27 -13 37 -16 26 -8 21 -24 -10 -30 -16 -3 -239 -5 -498 -5 -452 1 -470 1 -473 -17 -7 -42 -11 -47 -27 -34 -8 7 -15 21 -15 31 0 15 -7 19 -34 19 -40 0 -50 12 -52 57 0 22 4 34 15 36 9 3 225 4 481 3 398 -2 472 -4 511 -18z m-2616 -65 c-4 -16 -11 -82 -14 -148 l-7 -120 -2 125 c-2 129 3 170 20 170 6 0 7 -11 3 -27z m-6841 -135 c8 -15 26 -27 56 -34 27 -6 45 -16 45 -25 0 -19 -236 -21 -242 -2 -4 11 6 15 74 29 13 2 25 16 32 36 12 33 17 32 35 -4z m1425 -9 c17 -6 31 -15 31 -19 0 -17 -60 -20 -345 -19 -252 2 -296 -1 -339 -16 -37 -13 -66 -16 -110 -11 -34 3 -132 6 -218 5 -122 0 -162 3 -178 14 l-21 14 23 8 c13 4 228 9 479 11 250 3 475 8 500 13 64 13 141 13 178 0z m381 -18 c36 -6 20 -8 -80 -13 -129 -6 -163 -2 -138 13 16 10 155 10 218 0z m9719 -9 c3 -1 0 -7 -6 -13 -5 -5 -47 -11 -91 -12 -79 -3 -83 -4 -109 -35 -28 -32 -28 -32 -60 -16 -30 15 -35 15 -90 -10 -32 -15 -69 -32 -83 -39 -23 -12 -27 -10 -46 18 -24 35 -39 112 -24 117 10 3 501 -6 509 -10z m-11329 -2 c12 -8 12 -10 -4 -16 -11 -4 -24 0 -34 10 -15 15 -15 16 3 16 11 0 27 -4 35 -10z m3025 0 c-3 -5 -13 -10 -21 -10 -8 0 -14 5 -14 10 0 6 9 10 21 10 11 0 17 -4 14 -10z m8705 4 l25 -7 -25 -6 c-14 -3 -72 -4 -130 -2 -58 2 -94 6 -80 10 37 9 181 12 210 5z m-8857 -101 c-7 -2 -13 -11 -13 -19 0 -9 -4 -12 -10 -9 -19 12 -10 35 13 34 12 0 16 -3 10 -6z m-865 -11 c17 -11 4 -42 -18 -42 -10 0 -23 7 -31 16 -10 13 -10 17 2 25 17 11 30 11 47 1z m-138 -11 c0 -12 -75 -23 -106 -15 -19 5 -22 9 -12 15 17 11 118 11 118 0z m5010 -30 c146 -55 200 -118 200 -233 0 -51 -5 -70 -25 -100 -34 -51 -99 -92 -165 -106 -30 -6 -77 -15 -104 -20 -114 -23 -137 18 -147 263 -3 93 -10 180 -14 193 l-8 23 114 -3 c63 -2 130 -10 149 -17z m2528 -132 c29 -11 108 -92 115 -119 6 -24 -14 -27 -33 -5 -6 8 -31 26 -55 40 -74 43 -153 32 -230 -33 -63 -53 -136 -163 -168 -254 -7 -21 -27 -24 -28 -5 -5 63 18 161 53 227 42 80 119 146 188 161 38 8 121 2 158 -12z m-6643 -96 c-4 -29 -11 -53 -16 -53 -10 0 -12 109 -2 136 12 32 25 -27 18 -83z m7195 -40 c138 -57 139 -59 129 -213 -4 -69 -10 -133 -14 -142 -5 -12 -19 -17 -53 -17 -27 1 -67 -8 -92 -20 -34 -16 -66 -21 -132 -21 -48 0 -90 -4 -93 -10 -4 -6 26 -10 84 -10 49 0 92 -4 95 -8 7 -12 -14 -214 -26 -235 -13 -25 -49 -37 -70 -23 -9 5 -19 8 -22 5 -8 -8 -26 -137 -26 -188 0 -46 -38 -111 -64 -111 -19 0 -23 -34 -25 -202 l-2 -148 28 -11 c16 -6 53 -8 88 -5 61 6 135 -7 135 -24 0 -6 -18 -10 -39 -10 -46 0 -73 -9 -65 -21 3 -5 14 -9 25 -9 10 0 19 -4 19 -8 0 -5 -61 -9 -135 -11 -74 -1 -135 2 -135 6 0 5 5 14 12 21 9 9 5 12 -19 12 -30 0 -74 31 -86 61 -3 8 -6 2 -6 -13 -1 -30 -19 -47 -31 -29 -6 11 -6 54 0 141 1 19 5 13 14 -20 9 -34 19 -48 41 -59 17 -8 32 -18 33 -23 2 -4 20 -8 39 -8 33 0 35 1 29 28 -4 15 -11 86 -17 157 -5 72 -16 160 -24 196 -8 37 -15 84 -15 105 0 22 -5 46 -10 54 -8 12 -10 11 -10 -6 0 -20 -40 -67 -40 -48 0 5 -7 70 -16 144 -8 74 -19 173 -25 220 -6 57 -6 86 1 88 14 5 12 32 -2 32 -7 0 -23 3 -35 6 -23 6 -23 5 -23 -78 0 -47 5 -99 10 -115 10 -29 25 -180 36 -376 3 -53 1 -107 -6 -135 -7 -26 -15 -86 -19 -134 -3 -47 -9 -89 -13 -93 -13 -13 -119 66 -138 105 -13 25 -16 304 -4 342 4 15 17 18 68 18 l63 0 -5 103 c-2 56 -9 111 -15 122 -6 11 -14 79 -18 150 -4 72 -11 180 -15 241 l-7 110 33 37 c29 33 37 37 80 37 27 0 51 -4 54 -9 3 -5 16 -11 28 -14 13 -2 31 -8 41 -12 22 -9 24 17 2 35 -22 18 -19 25 18 50 30 20 41 21 187 16 121 -3 165 -8 200 -23z m-7256 -309 c-4 -29 -11 -51 -15 -48 -11 6 -12 128 -2 138 14 13 23 -36 17 -90z m-504 27 c0 -62 -13 -88 -24 -48 -12 45 -7 107 9 107 12 0 15 -13 15 -59z m2383 10 c9 -8 17 -21 17 -27 0 -7 6 -14 13 -17 6 -2 9 -7 5 -11 -7 -8 -48 23 -48 37 0 5 -7 15 -15 23 -8 9 -15 23 -14 32 0 15 2 14 12 -2 7 -10 20 -26 30 -35z m-690 -113 c15 -24 50 -68 77 -98 28 -30 50 -58 50 -62 0 -16 -40 -17 -93 -3 -74 19 -94 19 -105 -1 -16 -29 -23 2 -11 48 6 24 14 61 18 83 10 48 21 75 30 75 4 0 19 -19 34 -42z m-1666 -111 c1 -39 -2 -78 -7 -86 -6 -11 -9 17 -10 78 0 108 14 115 17 8z m442 -24 c0 -59 -3 -81 -9 -68 -15 36 -11 155 6 155 2 0 4 -39 3 -87z m7381 -14 c0 -51 -4 -78 -10 -74 -16 10 -10 155 6 155 2 0 4 -36 4 -81z m-1043 41 c21 -23 37 -30 66 -30 48 0 66 -10 121 -65 45 -45 46 -65 2 -65 -11 0 -45 -4 -75 -10 -31 -5 -96 -16 -146 -25 -49 -8 -106 -16 -125 -18 l-35 -2 -3 -265 c-1 -146 -5 -271 -7 -277 -6 -17 -89 -17 -103 0 -7 8 -13 111 -16 277 -2 146 -8 273 -11 283 -4 9 -15 17 -25 17 -10 0 -23 7 -30 15 -7 8 -20 15 -30 15 -19 0 -70 43 -70 60 0 19 64 50 104 50 26 0 47 8 69 26 33 28 75 28 107 -1 25 -22 52 -18 96 15 50 37 75 38 111 0z m208 -449 c0 -233 -2 -264 -17 -278 -25 -22 -54 -13 -50 17 2 14 6 131 9 260 4 196 7 238 21 253 34 38 37 16 37 -252z m802 147 c-2 -18 -4 -4 -4 32 0 36 2 50 4 33 2 -18 2 -48 0 -65z m1141 24 c2 -36 -1 -52 -9 -52 -23 0 3 -15 29 -17 15 -1 266 -6 557 -12 292 -5 532 -10 535 -11 18 -5 -45 -17 -94 -19 -58 -2 -104 -18 -138 -48 -12 -11 -26 -13 -45 -8 -49 13 -82 15 -88 5 -3 -6 3 -10 14 -10 12 0 21 -5 21 -11 0 -7 -11 -9 -26 -6 -15 3 -42 -2 -61 -9 -31 -14 -33 -17 -27 -48 5 -28 2 -36 -14 -45 -12 -6 -33 -11 -48 -11 -15 0 -41 -12 -60 -29 -18 -17 -59 -38 -91 -47 -70 -21 -82 -30 -54 -39 19 -6 20 -7 3 -40 -13 -27 -27 -38 -62 -48 -33 -10 -44 -18 -42 -30 2 -13 -5 -17 -33 -17 -19 0 -35 5 -35 10 0 6 9 10 21 10 11 0 17 5 14 10 -3 6 -16 10 -28 10 -13 0 -47 23 -82 55 -33 30 -112 84 -175 120 -164 93 -178 106 -186 183 -9 83 -1 92 87 92 l69 0 0 53 c0 58 5 69 30 65 11 -2 16 -18 18 -56z m-9100 2 c6 -49 28 -64 93 -64 53 0 59 -2 63 -22 9 -44 16 -177 10 -193 -10 -24 -24 -7 -24 30 0 19 -4 36 -9 39 -24 15 -29 -88 -6 -118 20 -26 20 -96 1 -96 -10 0 -16 13 -18 38 -4 46 -22 49 -26 4 -2 -23 2 -38 13 -46 12 -9 15 -24 13 -59 -4 -62 -22 -65 -28 -5 -6 49 -17 71 -24 47 -15 -55 -37 -157 -37 -174 0 -11 -4 -35 -10 -53 -10 -29 -14 -33 -36 -27 -27 6 -52 -16 -53 -47 0 -9 -11 -30 -25 -46 -14 -17 -25 -35 -25 -41 0 -14 -36 -33 -58 -30 -9 1 -29 -1 -43 -5 -30 -8 -181 25 -186 41 -2 6 3 18 12 26 8 9 15 19 15 24 0 4 16 26 36 47 20 21 48 57 62 80 15 23 31 46 37 53 14 17 24 30 78 99 41 53 63 112 38 102 -8 -3 -255 -286 -329 -376 -20 -26 -44 -53 -53 -62 -8 -9 -37 -47 -63 -83 -26 -37 -52 -67 -56 -67 -5 0 -25 11 -45 24 -20 14 -78 34 -131 47 -52 12 -96 25 -99 29 -3 4 14 20 38 36 23 15 100 85 172 154 280 271 316 311 330 373 7 25 5 27 -22 27 -25 0 -50 -20 -142 -110 -104 -103 -131 -120 -131 -85 0 18 -36 28 -81 23 -30 -3 -34 0 -37 22 -6 40 -22 48 -22 12 0 -19 -6 -35 -14 -38 -8 -3 -17 -16 -20 -29 -6 -25 -293 -315 -312 -315 -11 0 -39 -29 -112 -118 -43 -51 -45 -52 -97 -52 -102 0 -107 15 -32 91 96 97 375 359 383 359 4 0 26 16 49 35 62 51 108 145 70 145 -8 0 -15 -8 -15 -17 0 -10 -10 -27 -22 -38 l-22 -20 -24 22 -25 23 -29 -32 c-65 -75 -87 -94 -197 -178 -113 -87 -286 -248 -346 -322 -39 -49 -49 -52 -113 -32 -40 13 -56 24 -64 43 -11 29 -11 28 117 131 38 30 76 62 84 70 9 8 54 48 101 89 47 40 99 88 117 106 l32 32 -70 1 c-39 1 -78 -4 -89 -10 -15 -9 -24 -9 -44 2 -14 7 -26 16 -26 20 0 3 19 11 43 18 42 11 118 10 190 -3 26 -5 37 -4 37 5 0 7 -6 10 -14 7 -10 -4 -16 2 -18 21 -4 33 -44 42 -82 17 -23 -15 -26 -15 -51 1 -17 11 -44 17 -73 16 -26 -1 -71 1 -100 4 -52 5 -53 6 -50 36 3 35 -5 41 -74 59 -54 13 -63 34 -18 44 17 4 30 10 30 14 0 14 -125 30 -195 24 -73 -5 -155 10 -155 29 0 7 -5 6 -15 -2 -8 -6 -19 -9 -25 -5 -20 12 -10 25 20 25 19 0 30 5 30 14 0 11 -37 15 -180 21 -174 7 -226 18 -137 29 23 3 182 7 353 9 274 3 315 5 338 20 14 10 26 25 26 34 0 36 30 53 92 53 37 0 57 -4 53 -10 -3 -5 -16 -10 -28 -10 -12 0 -29 -4 -36 -9 -24 -16 25 -47 89 -57 30 -5 150 -9 266 -9 164 0 215 3 227 14 13 10 31 11 74 5 32 -4 126 -9 208 -10 83 -2 239 -5 348 -8 179 -5 319 3 335 19 4 3 1 15 -6 26 -15 23 -6 62 11 56 7 -2 14 -17 15 -33z m9272 17 c0 -17 -43 -41 -72 -41 -34 0 -36 13 -6 34 25 17 78 22 78 7z m-760 -21 c0 -11 -58 -23 -90 -18 -13 1 -25 9 -28 16 -3 9 13 12 57 12 34 0 61 -4 61 -10z m1290 -10 c0 -11 -4 -20 -10 -20 -5 0 -10 9 -10 20 0 11 5 20 10 20 6 0 10 -9 10 -20z m-11952 -7 c-5 -25 -28 -28 -28 -4 0 12 6 21 16 21 9 0 14 -7 12 -17z m10482 -89 c0 -42 -5 -73 -16 -89 -15 -23 -15 -27 6 -60 40 -65 39 -65 186 -65 175 0 238 -16 394 -101 75 -41 220 -140 220 -150 0 -5 4 -9 9 -9 9 0 104 -59 126 -78 6 -4 42 -25 80 -47 39 -21 72 -41 75 -44 9 -12 156 -98 180 -106 27 -9 61 -46 53 -59 -3 -4 -24 -5 -47 -1 -22 4 -109 10 -193 14 -83 3 -155 9 -159 13 -4 4 -1 14 6 23 16 19 7 40 -24 57 -45 23 -171 101 -176 108 -15 21 -169 100 -183 94 -9 -3 -33 4 -54 18 -21 12 -45 28 -54 33 -9 6 -45 27 -78 48 -61 36 -81 44 -81 30 0 -10 42 -53 52 -53 4 0 115 -81 247 -179 134 -100 253 -182 270 -186 45 -10 38 -23 -16 -30 -27 -3 -67 -11 -89 -16 -59 -15 -81 -5 -96 43 -9 31 -20 44 -45 54 -18 8 -33 19 -33 24 0 6 -8 10 -18 10 -10 0 -31 13 -48 28 -85 78 -185 151 -198 146 -11 -4 -13 0 -9 15 6 22 -12 30 -20 9 -4 -10 -7 -10 -18 0 -12 11 -12 14 0 21 7 5 10 14 6 20 -5 9 -11 7 -20 -6 -13 -17 -14 -17 -34 2 -32 32 -49 45 -60 45 -6 0 -14 6 -18 13 -4 6 -24 23 -43 37 -19 13 -39 28 -45 32 -5 5 -23 20 -40 33 -29 24 -65 34 -65 18 0 -10 60 -67 165 -158 43 -39 133 -122 198 -185 65 -63 136 -125 158 -138 39 -23 51 -42 26 -42 -19 0 -87 -65 -87 -84 0 -24 -11 -20 -50 21 -19 21 -70 67 -113 103 -43 36 -88 73 -100 84 -12 10 -49 39 -82 64 -33 25 -62 49 -65 52 -6 7 -168 148 -201 175 -13 11 -39 32 -57 48 -40 32 -52 34 -52 7 0 -11 4 -20 9 -20 4 0 23 -16 42 -36 19 -20 47 -48 63 -62 103 -97 141 -136 139 -146 -2 -6 11 -17 27 -24 39 -18 38 -32 -1 -32 -22 0 -40 10 -67 38 -45 47 -65 55 -97 40 -27 -12 -32 -36 -12 -57 31 -33 -32 11 -88 62 l-60 54 2 79 c1 44 5 163 10 266 7 155 11 190 25 204 14 15 37 17 157 15 130 -2 141 -1 153 18 19 31 28 15 28 -55z m313 69 c-13 -2 -35 -2 -50 0 -16 2 -5 4 22 4 28 0 40 -2 28 -4z m-11077 -62 c-7 -11 -310 -11 -346 0 -14 4 59 8 163 8 106 1 186 -3 183 -8z m12997 2 c-24 -2 -62 -2 -85 0 -24 2 -5 4 42 4 47 0 66 -2 43 -4z m-8027 -120 c-8 -8 -46 32 -46 48 0 6 12 0 27 -15 14 -14 23 -29 19 -33z m2031 -145 c-2 -35 -3 -7 -3 62 0 69 1 97 3 63 2 -35 2 -91 0 -125z m2382 -15 c0 -45 -3 -84 -8 -87 -15 -9 -16 7 -12 121 5 123 18 101 20 -34z m981 20 c0 -54 -3 -73 -10 -63 -17 27 -12 140 7 140 2 0 3 -35 3 -77z m1835 28 c7 -12 -31 -25 -45 -16 -5 3 -10 10 -10 16 0 12 47 12 55 0z m-9089 -156 c-4 -19 -11 -33 -17 -30 -10 7 -12 68 -2 79 14 14 25 -14 19 -49z m-161 30 c0 -20 -142 -32 -240 -20 -63 8 -78 13 -71 23 8 13 311 9 311 -3z m-1195 -63 c0 -12 -45 -57 -169 -172 -57 -52 -114 -105 -128 -117 -26 -25 -53 -30 -53 -10 0 17 65 95 166 199 61 62 94 89 122 96 49 13 62 14 62 4z m1175 -36 l38 -16 -29 -23 c-26 -20 -40 -22 -139 -22 -98 0 -114 2 -138 21 l-27 22 23 15 c13 8 37 17 53 20 57 8 182 -2 219 -17z m7405 -60 c-9 -25 -50 -38 -50 -16 0 6 7 10 15 10 17 0 20 25 5 35 -6 4 -3 16 7 32 l17 26 8 -31 c5 -17 4 -42 -2 -56z m-6213 -133 c5 -15 -24 -24 -53 -17 -32 8 -30 22 4 27 35 5 45 3 49 -10z m899 -18 c21 -19 44 -35 51 -35 8 0 16 -7 19 -15 4 -8 12 -15 20 -15 8 0 14 -7 14 -15 0 -14 -4 -14 -32 1 -49 24 -118 83 -118 100 0 20 3 18 46 -21z m3107 -64 c5 -20 -20 -51 -41 -51 -17 0 -15 15 3 30 8 7 15 19 15 26 0 21 17 17 23 -5z m-4838 -46 c6 -2 -26 -3 -70 -3 -50 0 -70 3 -55 7 23 7 101 4 125 -4z m-1222 -32 c9 -9 -13 -34 -24 -27 -14 8 -11 34 4 34 8 0 17 -3 20 -7z"/> <path d="M6178 6478 c-57 -12 -106 -54 -137 -116 -31 -61 -22 -81 21 -49 78 59 151 70 272 40 77 -18 99 -12 104 29 5 39 -34 76 -98 93 -62 17 -94 17 -162 3z"/> <path d="M6770 6480 c-39 -9 -90 -60 -90 -89 0 -54 31 -64 111 -35 53 19 164 23 181 6 7 -7 19 -12 28 -12 10 0 34 -16 54 -36 44 -43 62 -35 52 21 -10 54 -87 128 -148 143 -53 13 -135 14 -188 2z"/> <path d="M6172 6267 c-41 -13 -92 -70 -92 -102 0 -21 5 -25 30 -25 23 0 31 5 36 25 8 33 16 32 38 -10 10 -19 27 -37 38 -41 34 -10 77 6 95 37 20 34 21 34 51 13 49 -34 38 18 -15 77 -33 37 -38 39 -92 38 -31 -1 -71 -6 -89 -12z"/> <path d="M6800 6269 c-37 -15 -60 -39 -60 -64 0 -11 -5 -26 -12 -33 -21 -21 0 -24 23 -3 29 27 37 26 45 -4 8 -32 32 -45 82 -45 34 0 41 4 46 25 6 24 26 36 26 15 0 -16 38 -31 65 -24 17 4 25 13 25 28 0 26 -63 90 -103 105 -35 13 -103 13 -137 0z"/> <path d="M6455 5841 c-24 -5 -30 -12 -30 -31 0 -18 8 -29 30 -39 17 -7 40 -23 52 -34 15 -13 36 -20 63 -20 63 0 160 74 160 122 0 5 -29 9 -64 10 -46 1 -67 -3 -76 -14 -16 -19 -39 -19 -64 0 -21 16 -24 16 -71 6z"/> <path d="M6895 5770 c-3 -6 1 -13 9 -16 9 -3 16 -15 16 -25 0 -10 7 -19 15 -19 8 0 15 8 15 18 -1 21 -46 56 -55 42z"/> <path d="M6187 5732 c-21 -23 -22 -52 -2 -52 8 0 15 6 15 14 0 7 7 19 15 26 8 7 15 16 15 21 0 15 -26 10 -43 -9z"/> <path d="M6230 5677 c0 -19 129 -139 142 -131 5 3 4 11 -2 19 -6 8 -10 24 -8 37 3 20 9 23 56 26 65 4 68 19 5 26 -47 6 -125 21 -170 32 -17 5 -23 2 -23 -9z"/> <path d="M6800 5674 c-30 -8 -72 -16 -93 -19 -52 -8 -36 -25 23 -25 59 0 69 -13 41 -51 -25 -34 -26 -39 -6 -39 17 0 145 123 145 139 0 14 -41 12 -110 -5z"/> <path d="M6550 5620 c0 -5 11 -10 25 -10 14 0 25 5 25 10 0 6 -11 10 -25 10 -14 0 -25 -4 -25 -10z"/> <path d="M7469 4811 c-53 -8 -79 -25 -79 -53 0 -18 5 -19 93 -12 50 3 95 8 100 11 14 8 6 24 -18 33 -14 5 -25 14 -25 20 0 11 -1 11 -71 1z"/> <path d="M5899 4763 c-13 -9 -26 -19 -29 -23 -6 -6 -90 -62 -105 -70 -5 -3 -28 -17 -50 -31 -43 -28 -97 -58 -212 -121 -89 -49 -128 -97 -137 -171 -7 -61 -34 -527 -38 -672 l-3 -99 65 -3 c36 -1 79 -3 95 -5 l30 -3 6 175 c4 96 10 191 14 210 13 61 70 137 132 177 l58 38 152 3 c169 5 170 5 154 71 -31 121 -42 197 -40 277 1 60 -3 104 -14 134 -8 25 -18 59 -22 77 -9 45 -26 56 -56 36z"/> <path d="M6457 4675 c-45 -34 -137 -144 -137 -163 0 -5 -27 -50 -60 -100 -63 -94 -80 -142 -30 -82 16 19 30 39 30 43 0 16 55 67 72 67 9 0 30 -20 47 -44 16 -25 39 -58 51 -73 19 -26 20 -34 9 -82 -6 -29 -7 -57 -3 -61 5 -5 68 -10 139 -11 l130 -3 0 74 c0 70 2 79 39 133 43 64 67 82 84 65 26 -26 22 5 -9 68 -19 37 -60 95 -94 131 l-60 64 -81 5 c-80 4 -82 3 -127 -31z"/> <path d="M7610 4646 c0 -15 18 -31 26 -23 7 7 -7 37 -17 37 -5 0 -9 -6 -9 -14z"/> <path d="M5816 3539 c-21 -16 -26 -29 -25 -62 0 -38 1 -40 10 -17 6 13 21 39 35 57 29 38 17 51 -20 22z"/> <path d="M5971 3521 c-17 -16 -31 -38 -31 -50 0 -26 5 -26 32 -1 27 25 93 28 102 4 11 -29 6 -34 -36 -34 -50 0 -78 -13 -57 -25 7 -5 32 -8 56 -8 51 0 72 20 73 71 0 26 -6 36 -32 52 -45 27 -70 25 -107 -9z"/> <path d="M6256 3458 c4 -13 11 -39 15 -58 6 -29 7 -31 8 -9 2 39 -10 89 -21 89 -5 0 -6 -10 -2 -22z"/> <path d="M6000 3342 c0 -5 12 -14 27 -21 24 -11 26 -14 10 -22 -14 -8 -17 -25 -17 -92 0 -45 -4 -88 -9 -96 -15 -24 -41 28 -41 84 0 69 -10 83 -46 65 -16 -8 -44 -32 -64 -52 -19 -21 -41 -38 -47 -38 -20 0 -16 -70 5 -86 12 -9 54 -13 145 -14 l127 0 -6 43 c-3 23 -9 58 -14 77 -12 53 -12 118 0 125 5 3 10 13 10 21 0 10 -12 14 -40 14 -22 0 -40 -4 -40 -8z"/> <path d="M5627 3311 c-4 -19 -14 -42 -21 -50 -8 -9 -16 -27 -18 -41 -2 -18 -9 -25 -26 -26 -13 -1 -37 -11 -53 -23 -22 -17 -50 -24 -102 -28 -64 -5 -75 -3 -99 17 -18 13 -28 31 -28 48 -1 33 -45 91 -59 77 -5 -6 -13 -26 -18 -45 -9 -33 -12 -35 -46 -32 -32 3 -37 1 -37 -18 0 -19 13 -50 41 -100 5 -8 13 -25 18 -37 6 -11 15 -24 20 -28 17 -10 14 -65 -3 -65 -8 0 -18 5 -21 10 -9 15 -65 12 -65 -2 0 -7 36 -60 80 -118 44 -58 113 -154 155 -215 60 -89 185 -243 270 -336 8 -9 15 -20 15 -26 0 -13 68 -117 80 -121 4 -1 5 9 3 23 -3 14 -9 25 -14 25 -5 0 -9 5 -9 10 0 6 -10 24 -22 41 l-23 31 -5 531 c-3 293 -8 517 -13 498z"/> <path d="M6115 3258 c-2 -7 -5 -53 -7 -102 l-3 -88 69 5 c81 7 106 25 106 74 0 25 -4 33 -19 33 -10 0 -29 10 -43 23 -40 37 -80 67 -90 67 -5 0 -10 -6 -13 -12z"/> <path d="M9902 2600 c45 -35 168 -50 168 -21 0 17 -81 41 -137 41 l-56 0 25 -20z"/> <path d="M8460 1990 l-35 -7 38 -2 c20 0 37 4 37 9 0 6 -1 9 -2 9 -2 -1 -19 -5 -38 -9z"/> <path d="M8335 1960 c-4 -6 5 -10 19 -10 14 0 26 5 26 10 0 6 -9 10 -19 10 -11 0 -23 -4 -26 -10z"/> <path d="M5819 1723 c-28 -24 -29 -29 -29 -104 0 -70 3 -83 23 -103 l24 -24 626 2 c587 1 627 2 644 19 15 14 18 35 18 107 0 84 -2 91 -25 107 -23 16 -72 18 -638 19 l-614 1 -29 -24z m506 -33 c3 -5 18 -2 35 6 23 12 37 13 70 4 29 -8 50 -8 79 1 32 10 48 9 94 -6 42 -13 59 -14 75 -6 29 15 36 -2 18 -38 -14 -25 -14 -30 -1 -41 8 -7 15 -23 15 -36 0 -24 -18 -32 -35 -15 -6 6 -32 5 -69 -4 -38 -9 -66 -11 -82 -5 -15 6 -34 6 -48 0 -18 -6 -28 -5 -37 6 -10 13 -14 13 -30 -2 -14 -12 -22 -13 -38 -4 -12 6 -21 17 -21 25 0 22 -18 18 -30 -6 -9 -16 -19 -19 -48 -17 -33 3 -38 7 -46 39 -13 54 0 107 27 111 28 4 66 -2 72 -12z"/> <path d="M6550 1640 c-11 -7 -12 -14 -4 -27 18 -30 34 -27 34 6 0 33 -6 37 -30 21z"/> <path d="M4230 1500 c0 -19 3 -21 12 -12 9 9 9 15 0 24 -9 9 -12 7 -12 -12z"/> <path d="M5485 1510 c-4 -6 6 -10 22 -10 22 0 25 2 13 10 -19 12 -27 12 -35 0z"/> <path d="M4261 1373 c-1 -23 4 -45 9 -48 12 -8 12 42 0 70 -7 16 -9 11 -9 -22z"/> <path d="M4373 1265 c4 -25 1 -37 -10 -44 -14 -7 -13 -11 6 -30 11 -11 24 -21 27 -21 7 0 74 -71 74 -79 0 -4 19 -15 43 -25 23 -10 61 -27 84 -37 23 -11 51 -19 62 -19 11 0 23 -4 26 -10 3 -5 15 -10 26 -10 10 0 19 5 19 10 0 6 -9 10 -19 10 -11 0 -22 4 -25 9 -4 5 -27 19 -53 32 -25 12 -60 35 -78 50 -17 15 -43 31 -58 34 -21 6 -25 11 -18 24 16 27 -50 124 -91 134 -18 5 -20 2 -15 -28z"/> <path d="M5839 1287 c-66 -51 -63 -187 6 -249 23 -20 135 -25 178 -9 31 12 66 48 79 81 17 45 1 124 -34 159 -30 30 -32 31 -122 31 -56 -1 -97 -5 -107 -13z m157 -32 c28 -19 39 -116 19 -155 -16 -31 -33 -40 -73 -40 -45 0 -51 10 -51 89 0 64 3 76 24 97 28 27 52 30 81 9z"/> <path d="M6393 1293 c-7 -2 -13 -13 -13 -24 0 -17 3 -18 20 -9 12 7 39 8 65 4 38 -5 45 -10 45 -29 0 -12 7 -28 15 -35 32 -27 27 -108 -9 -132 -6 -4 -33 -8 -59 -8 -69 0 -99 31 -97 103 3 81 1 97 -10 97 -6 0 -15 -11 -20 -24 -5 -13 -14 -27 -19 -31 -21 -12 -12 -75 16 -113 46 -62 62 -72 128 -71 67 0 84 10 128 74 30 44 34 76 12 95 -8 7 -15 20 -15 30 0 10 -14 32 -32 49 -28 27 -38 31 -87 30 -31 0 -62 -3 -68 -6z"/> <path d="M6818 1175 c-7 -36 11 -109 33 -127 26 -22 153 -26 147 -5 -3 7 -26 13 -57 15 -49 3 -52 5 -58 33 -4 24 -10 29 -24 26 -14 -4 -19 0 -20 16 0 12 -4 31 -8 42 -8 20 -8 20 -13 0z"/> <path d="M7060 1150 c3 -39 1 -43 -15 -30 -20 17 -29 -7 -16 -43 12 -31 27 -34 59 -11 17 12 22 25 22 61 0 37 -3 43 -13 34 -10 -8 -17 -7 -26 2 -10 10 -12 7 -11 -13z"/> <path d="M6150 845 c0 -13 41 -15 305 -15 264 0 305 2 305 15 0 13 -41 15 -305 15 -264 0 -305 -2 -305 -15z"/> <path d="M4720 790 c-14 -3 -20 -8 -15 -11 15 -9 240 -3 238 6 -3 9 -188 14 -223 5z"/> <path d="M8928 6579 c-19 -10 -24 -44 -9 -53 4 -3 17 1 27 9 25 19 44 19 44 0 0 -8 5 -15 10 -15 23 0 8 40 -20 55 -34 18 -30 17 -52 4z"/> <path d="M8922 6235 c0 -53 1 -57 10 -32 7 20 7 39 0 60 -9 29 -10 27 -10 -28z"/> <path d="M8986 6234 c-8 -29 1 -64 15 -64 12 0 12 77 0 84 -5 3 -12 -6 -15 -20z"/> <path d="M8212 6191 c2 -7 7 -12 11 -12 12 1 9 15 -3 20 -7 2 -11 -2 -8 -8z"/> <path d="M8711 6291 c-7 -5 -10 -14 -6 -20 5 -9 10 -9 21 0 26 22 14 38 -15 20z"/> <path d="M7685 6010 c-4 -6 5 -10 20 -10 15 0 24 4 20 10 -3 6 -12 10 -20 10 -8 0 -17 -4 -20 -10z"/> <path d="M9156 5980 c7 -7 19 -7 35 -1 23 9 22 10 -10 10 -24 1 -32 -2 -25 -9z"/> <path d="M8422 5274 c-16 -11 -22 -26 -22 -50 0 -32 2 -35 23 -29 31 10 45 31 39 60 -6 33 -14 37 -40 19z"/> <path d="M4950 5465 c0 -14 30 -62 48 -78 17 -16 23 -16 41 -5 12 7 21 18 21 25 0 7 7 13 15 13 9 0 15 9 15 25 0 24 -2 25 -70 25 -38 0 -70 -2 -70 -5z"/> <path d="M3350 4944 c0 -17 22 -14 28 4 2 7 -3 12 -12 12 -9 0 -16 -7 -16 -16z"/> <path d="M12325 5051 c-17 -7 -16 -9 13 -16 36 -7 48 -3 37 14 -7 13 -21 13 -50 2z"/> <path d="M11370 5038 c0 -7 -3 -30 -6 -50 -5 -25 -3 -38 5 -38 6 0 11 11 11 24 0 13 7 26 15 30 20 7 19 32 -1 40 -22 8 -24 8 -24 -6z"/> <path d="M11778 4768 c-38 -13 -38 -48 -1 -48 l27 0 -23 -17 c-23 -15 -23 -17 -6 -30 31 -22 50 -15 78 28 32 49 33 55 8 69 -24 12 -47 12 -83 -2z"/> <path d="M11719 4544 c-10 -13 -10 -17 2 -25 23 -14 59 -10 66 7 12 31 -44 46 -68 18z"/> <path d="M12322 4288 c2 -16 9 -22 23 -21 29 3 89 -17 98 -33 9 -15 37 -19 37 -5 0 4 -18 21 -40 36 -22 15 -40 32 -40 36 0 5 -18 9 -41 9 -36 0 -40 -2 -37 -22z"/> <path d="M12051 3643 c-6 -21 -11 -45 -11 -53 0 -8 -19 -34 -42 -57 -48 -49 -45 -60 22 -69 l45 -6 16 61 c9 33 12 66 7 73 -4 7 -8 27 -8 45 0 46 -17 50 -29 6z"/> <path d="M12507 3344 c-4 -4 -7 -14 -7 -23 0 -11 3 -12 11 -4 6 6 10 16 7 23 -2 6 -7 8 -11 4z"/> <path d="M12455 3260 c-12 -23 -22 -30 -45 -30 -33 0 -34 -2 -21 -46 6 -21 4 -41 -5 -64 -12 -27 -16 -30 -29 -20 -26 22 -29 3 -6 -46 12 -25 20 -48 17 -51 -2 -3 -28 -8 -57 -12 -59 -7 -72 -22 -34 -39 40 -18 95 -15 101 6 3 9 17 40 30 67 13 28 24 54 24 59 0 4 6 22 14 39 33 73 46 111 46 138 0 37 -15 37 -35 -1z"/> <path d="M12186 3244 c-4 -9 -4 -19 -2 -21 8 -8 26 8 26 23 0 19 -16 18 -24 -2z"/> <path d="M12145 2980 c3 -5 17 -10 31 -10 13 0 24 5 24 10 0 6 -14 10 -31 10 -17 0 -28 -4 -24 -10z"/> <path d="M4968 4878 c-41 -15 -34 -24 23 -31 28 -4 58 -12 65 -18 10 -8 18 -9 25 -2 16 16 0 41 -33 52 -36 13 -44 13 -80 -1z"/> <path d="M1421 4147 c-13 -13 -15 -37 -2 -37 5 0 11 -10 13 -22 4 -27 35 -35 62 -15 26 19 12 37 -30 37 -38 0 -42 7 -18 25 15 10 15 13 2 18 -9 3 -21 0 -27 -6z"/> <path d="M2224 4399 c-6 -11 13 -39 27 -39 5 0 9 9 9 19 0 21 -26 36 -36 20z"/> <path d="M2246 4343 c-11 -11 -6 -23 9 -23 8 0 15 4 15 9 0 13 -16 22 -24 14z"/> <path d="M13402 3763 c-12 -22 -7 -53 9 -53 15 0 20 24 11 50 l-9 24 -11 -21z"/> <path d="M13085 3657 c-28 -21 -9 -40 21 -21 13 9 24 20 24 25 0 13 -24 11 -45 -4z"/> <path d="M13067 3362 c-25 -28 -21 -42 14 -42 27 0 30 3 27 27 -4 33 -19 39 -41 15z"/> <path d="M11640 1565 c0 -8 5 -15 10 -15 6 0 10 7 10 15 0 8 -4 15 -10 15 -5 0 -10 -7 -10 -15z"/> <path d="M10230 1801 c0 -11 26 -22 34 -14 12 12 5 23 -14 23 -11 0 -20 -4 -20 -9z"/> <path d="M10520 1554 c0 -9 5 -14 12 -12 18 6 21 28 4 28 -9 0 -16 -7 -16 -16z"/> <path d="M10147 1343 c-11 -11 -8 -163 3 -163 6 0 10 35 10 85 0 85 -1 91 -13 78z"/> <path d="M1867 1124 c-19 -23 -26 -41 -22 -54 12 -38 35 -15 35 34 0 12 5 27 12 34 6 6 10 14 7 16 -3 3 -17 -11 -32 -30z"/> <path d="M1568 1028 c9 -9 15 -9 24 0 9 9 7 12 -12 12 -19 0 -21 -3 -12 -12z"/> <path d="M11276 971 c-3 -4 13 -21 34 -37 22 -16 40 -32 40 -36 0 -11 30 -10 30 0 0 12 -62 68 -82 75 -10 3 -20 3 -22 -2z"/> </g> </svg> 